<svg xmlns="http://www.w3.org/2000/svg" width="118" height="77" viewBox="0 0 118 77">
    <defs>
        <linearGradient id="a" x1="36.955%" x2="80.155%" y1="74.217%" y2="16.011%">
            <stop offset="0%" stop-opacity="0"/>
            <stop offset="100%" stop-opacity=".8"/>
        </linearGradient>
    </defs>
    <g fill="none" fill-rule="evenodd" transform="translate(0 4.477)">
        <path fill="#2461AB" fill-rule="nonzero" d="M.283 71.538l15.509-.09 13.776-.054 27.557-.043 27.556.043 13.777.05 8.59.094-8.59.09-13.777.054-27.556.042-27.557-.042-13.776-.054z"/>
        <path fill="#6FC4F8" fill-rule="nonzero" d="M74.69 25.544H15.797a2.427 2.427 0 0 0-2.435 2.42v40.88a2.43 2.43 0 0 0 2.435 2.42H74.69a2.427 2.427 0 0 0 2.435-2.42v-40.88a2.41 2.41 0 0 0-.713-1.712 2.44 2.44 0 0 0-1.722-.708"/>
        <rect width="62.371" height="44.515" x="14.06" y="26.146" fill="#2461AA" fill-rule="nonzero" rx="2.823"/>
        <path fill="#FFF" fill-rule="nonzero" d="M18.521 27.298h53.705V69.51H18.521z"/>
        <rect width="48.307" height="26.141" x="21.219" y="37.892" fill="#DBDFF0" fill-rule="nonzero" opacity=".6" rx="3.352"/>
        <path fill="#00B9F0" fill-rule="nonzero" d="M31.054 32.418c.021.32-.096.634-.322.863a1.33 1.33 0 0 1-.933.301h-.651v-2.286h.72c.32-.02.634.086.875.295.216.22.329.52.311.827zm-.507.013c0-.49-.217-.736-.651-.736h-.269v1.488h.21c.477 0 .71-.251.71-.752zM31.54 33.582v-2.286h.485v2.284zM33.467 32.3h.912v1.184c-.263.089-.54.132-.818.128-.3.022-.594-.088-.804-.302a1.266 1.266 0 0 1-.269-.874c-.019-.318.096-.63.317-.86.24-.218.558-.33.882-.31a1.69 1.69 0 0 1 .684.142l-.164.386a1.161 1.161 0 0 0-.523-.125.643.643 0 0 0-.504.21.796.796 0 0 0-.19.568c-.014.2.04.4.153.568a.538.538 0 0 0 .445.194c.103 0 .206-.01.308-.03v-.476h-.434l.005-.403zM34.926 33.582v-2.286h.485v2.284zM36.875 33.582h-.485v-1.881h-.625v-.405H37.5v.402h-.625zM39.259 33.582l-.166-.533h-.837l-.166.533h-.536l.804-2.292h.598l.804 2.292h-.501zm-.268-.948c-.156-.494-.242-.773-.268-.837l-.043-.152a30.49 30.49 0 0 1-.295.989h.606zM40.074 33.582v-2.286h.488v1.884h.93v.4zM44.083 32.948a.595.595 0 0 1-.21.48.988.988 0 0 1-.624.176 1.477 1.477 0 0 1-.65-.136v-.45c.128.058.26.107.395.146.095.025.194.038.292.04a.426.426 0 0 0 .247-.059.213.213 0 0 0 .086-.181.204.204 0 0 0-.038-.12.407.407 0 0 0-.11-.101 3.074 3.074 0 0 0-.297-.155 1.372 1.372 0 0 1-.317-.189.752.752 0 0 1-.169-.21.615.615 0 0 1-.061-.28.582.582 0 0 1 .206-.478.848.848 0 0 1 .571-.173c.115 0 .23.014.34.043.117.03.231.069.341.117l-.158.376c-.099-.04-.2-.075-.303-.104a1.038 1.038 0 0 0-.236-.03.315.315 0 0 0-.212.065.207.207 0 0 0-.075.168c0 .039.01.078.03.112a.353.353 0 0 0 .096.09c.1.06.203.113.309.16.167.07.318.174.442.307.077.113.114.25.105.386zM44.498 33.582v-2.286h.488v2.284zM46.437 32.3h.922v1.184c-.263.089-.54.132-.818.128-.3.022-.594-.088-.804-.302a1.266 1.266 0 0 1-.268-.874c-.02-.318.095-.63.316-.86.24-.218.558-.33.882-.31a1.69 1.69 0 0 1 .684.142l-.163.386a1.161 1.161 0 0 0-.537-.125.653.653 0 0 0-.506.21.82.82 0 0 0-.188.568c-.014.2.04.4.153.568a.538.538 0 0 0 .445.194c.103 0 .206-.01.308-.03v-.476h-.434l.008-.403zM49.933 33.582h-.62l-1-1.727H48.3c.02.304.03.533.03.653v1.066h-.435v-2.278h.614l.998 1.71a13.529 13.529 0 0 1-.024-.628v-1.082h.44l.01 2.286zM51.917 33.582l-.166-.533h-.839l-.166.533h-.537l.805-2.292h.595l.805 2.292h-.497zm-.284-.954a20.156 20.156 0 0 0-.268-.837c-.027-.064-.032-.114-.04-.152a33.84 33.84 0 0 1-.298.99h.606zM53.617 33.582h-.488v-1.881h-.624v-.405h1.735v.402h-.623zM56.476 31.296v1.476a.86.86 0 0 1-.113.445.73.73 0 0 1-.33.29c-.16.073-.334.107-.51.102a.98.98 0 0 1-.686-.224.797.797 0 0 1-.246-.618v-1.471h.485v1.399a.59.59 0 0 0 .107.386.45.45 0 0 0 .354.123.436.436 0 0 0 .346-.123.592.592 0 0 0 .107-.392v-1.393h.486zM57.513 32.705v.877h-.488v-2.286h.67a1.14 1.14 0 0 1 .693.17c.25.223.298.594.112.872a.755.755 0 0 1-.314.248c.344.511.569.844.676.994h-.536l-.55-.877-.263.002zm0-.394h.156a.617.617 0 0 0 .343-.075.266.266 0 0 0 .11-.242.247.247 0 0 0-.113-.23.698.698 0 0 0-.348-.069h-.148v.616zM60.474 33.582h-1.317v-2.286h1.325v.397h-.837v.5h.778v.398h-.778v.589h.837z"/>
        <g fill-rule="nonzero" transform="translate(41.435)">
            <ellipse cx="9.865" cy="9.805" fill="#249E5A" rx="9.865" ry="9.805"/>
            <ellipse cx="9.865" cy="9.939" fill="#33B971" rx="7.851" ry="7.804"/>
            <path fill="#FFF" d="M8.28 13.371h-.016a1 1 0 0 1-.727-.327l-1.584-1.74a.993.993 0 0 1 .51-1.697c.367-.07.744.07.975.364l.866.951L12.31 6.8a1.007 1.007 0 0 1 1.393 0c.389.372.41.984.05 1.383L9 13.072c-.19.193-.45.3-.721.3z"/>
        </g>
        <path fill="#464646" fill-rule="nonzero" d="M59.235 50.139c-4.365-.475-8.58.325-12.769 1.388.014-.026.03-.048.043-.074.405-.752.826-1.6.89-2.474a.132.132 0 0 0-.164-.125c-1.407.28-2.305 1.8-2.884 2.97l-.024.044c-.537 0-1.08.005-1.63.014-.312 0-.623.026-.934.045a12.162 12.162 0 0 0 2.11-2.74c.61-1.085 1.057-2.398.743-3.632a.096.096 0 0 0-.094-.072c-1.367.16-2.324 1.62-2.95 2.694a12.747 12.747 0 0 0-1.511 3.907 24.54 24.54 0 0 0-1.813.267l.016-.064a.07.07 0 0 0-.134-.035c0 .04-.021.083-.03.125-.477.083-.949.174-1.42.267-1.66.324-3.266.882-4.768 1.655a6.98 6.98 0 0 0-.748.45c-.097.07-.072.243.064.238 2.931-.115 5.8-.693 8.65-1.402-.016 1.037.268 2.252 1.413 2.521.665.157 1.328-.128 1.915-.554a5.786 5.786 0 0 0 0 .746c.001.073.06.13.134.13.847.105 1.668-.4 2.335-.972.218.15.464.256.724.309 1.164.245 2.464-.019 3.596-.299.9-.226 2.065-.517 2.762-1.178a.12.12 0 0 0 0-.165c-1.18-1.005-2.708-1.503-4.205-1.817a18.187 18.187 0 0 0-.55-.104c.039-.158.06-.318.062-.48a.127.127 0 0 0-.158-.12c-.364.09-.712.236-1.032.432-.215-.024-.43-.048-.646-.067l.037-.064c4.135-1.066 8.296-1.895 12.603-1.503-.322.212-.659.4-1.009.56-.15.074-.018.29.132.22.486-.194.939-.463 1.34-.799a.146.146 0 0 0 .027-.15.147.147 0 0 0-.123-.092zm-12.117-.986a5.898 5.898 0 0 1-.574 1.66c-.131.267-.268.533-.42.8l-1.073.266h-.448c.533-1.085 1.332-2.38 2.515-2.726zm-1.772 2.985l.447.029c-.174.266-.354.552-.536.82a11.399 11.399 0 0 1-1.695 1.93c.17-.868.44-1.714.805-2.52l.979-.26zm-3.526.02c.804-.05 1.608-.071 2.397-.06v.021c-1.341.36-2.682.728-4.022 1.066.342-.214.668-.451.976-.712.115-.096.23-.194.34-.295.091-.003.199-.014.309-.02zm-1.564.132c.322-.035.644-.062.968-.088a8.18 8.18 0 0 1-1.016.76l-.048.026c0-.133.027-.267.045-.37.02-.105.033-.22.051-.328zm2.003-4.798c.507-.74 1.22-1.599 2.145-1.788.113-.024.113.831.108.943a4.61 4.61 0 0 1-.215 1.096 8.363 8.363 0 0 1-1.12 2.22 11.538 11.538 0 0 1-1.666 1.99c-.405.027-.804.062-1.21.105a12.57 12.57 0 0 1 1.964-4.577l-.006.011zm-2.244 4.838a9.16 9.16 0 0 0-.113.82 4.758 4.758 0 0 1-.512.248l-.726.174c-.507 0-.537-.534-.467-.987.604-.11 1.21-.199 1.818-.266v.01zm-4.29.786a27.264 27.264 0 0 1 2.314-.507c-.064.427-.027.867.308 1.034-2.185.534-4.41.89-6.652 1.067a14.743 14.743 0 0 1 4.043-1.605l-.013.01zm5.966 2.782c-1.298.102-1.582-1.247-1.569-2.366 1.303-.331 2.604-.685 3.904-1.035a10.26 10.26 0 0 0-.804 2.695 2.925 2.925 0 0 1-1.518.696l-.013.01zm3.754-1.919a3.525 3.525 0 0 1 1.483-1.69c.249.033.498.067.748.107-.269.821-.923 1.6-1.467 2.172-.166.179-.357.37-.563.56a1.016 1.016 0 0 1-.196-1.16l-.005.011zm2.483-1.482c1.59 0 3.276.715 4.545 1.751-.601.504-1.502.717-2.231.923a10.721 10.721 0 0 1-3.183.437 2.538 2.538 0 0 1-1.204-.312c.166-.152.319-.267.458-.419a8.686 8.686 0 0 0 1.61-2.38h.005zm-.145-.6c-.01.09-.024.18-.046.267-.153-.026-.308-.048-.46-.069.163-.084.335-.154.511-.208l-.005.01zm-1.228.34a3.833 3.833 0 0 0-1.309 1.572 1.326 1.326 0 0 0 .215 1.474c-.587.498-1.293.92-2.009.89a5.961 5.961 0 0 1 .04-.845c.375-.321.727-.669 1.052-1.04a13.764 13.764 0 0 0 1.539-2.097c.16.013.319.027.472.045z" opacity=".5"/>
        <path fill="#FFB797" fill-rule="nonzero" d="M62.5 47.044s.88 5.259 4.221 2.287l.78.37s-.804 1.834.37 2.876c1.175 1.042 2.738-1.652 2.738-1.652l.74.266s.024 2.327 1.858 2.524c1.834.198 1.81-4.125 1.81-4.125l3.934 3.91L89.724 42.8 79.7 32.836l-9.503 2.913-7.695 11.295z"/>
        <path fill="#49B2FF" fill-rule="nonzero" d="M98.624 62.186l3.906-18.916 15.365 1.98-4.532 22.093z"/>
        <path fill="#E28152" fill-rule="nonzero" d="M62.5 47.044s.88 5.259 4.221 2.287l.78.37s-.804 1.834.37 2.876c1.175 1.042 2.738-1.652 2.738-1.652l.74.266s.024 2.327 1.858 2.524c1.834.198 1.81-4.125 1.81-4.125l3.934 3.91L89.724 42.8 79.7 32.836l-9.503 2.913-7.695 11.295z" opacity=".5"/>
        <path fill="#FFB797" fill-rule="nonzero" d="M83.657 45.421s1.949-5.775-5.6-7.849c-7.426-2.268-12.414 5.882-12.414 5.882s-2.394 3.382-4.003 3.465l-1.746-.94s1.574-6.235 9.273-13.098c3.434-2.398 12.167-1.135 14.452-.938 2.284.197 4.057-.674 7.816 3.489 3.76 4.163 8.503 8.451 8.503 8.451l-.864 4.403-15.417-2.865z"/>
        <path fill="#E28152" fill-rule="nonzero" d="M74.173 49.475s-1.314-2.876-3.934-2.095a1.75 1.75 0 0 0-1.282 1.41l.121.896-.764-2.452s3.024-1.173 4.577-.086a2.765 2.765 0 0 1 1.282 2.327z" opacity=".5"/>
        <path fill="#9CA4BC" fill-rule="nonzero" d="M87.418 16.37s1.29.36 2.682 2.266l-.743.738-2.47-2.241.531-.763z"/>
        <path stroke="#9CA4BC" stroke-width=".956" d="M59.227 49.867l-.931 1.031"/>
        <path fill="#0057B4" fill-rule="nonzero" d="M58.554 49.475l1.172.965s2.169-.488 4.762-3.153C67.08 44.622 89.832 20.01 89.832 20.01s-1.467-2.241-3.583-3.222L61.12 44.11s-2.294 2.11-2.565 5.365z"/>
        <path fill="#27306A" fill-rule="nonzero" d="M88.1 17.943l-28.978 32.01.604.495s1.828-.517 3.898-2.3l16.871-18.052 9.337-10.077a14.58 14.58 0 0 0-1.732-2.076z" opacity=".5"/>
        <path stroke="#9CA4BC" stroke-width=".956" d="M78.999 28.191l9.299-10.051"/>
        <path fill="#004393" fill-rule="nonzero" d="M102.53 43.27l.537 9.211c.804 8.041 11.042 11.28 11.042 11.28l-.732 3.566-14.748-5.141 3.901-18.916z" opacity=".1"/>
        <path fill="url(#a)" fill-rule="nonzero" d="M83.657 45.173s.343-2.036 0-3.217a5.414 5.414 0 0 0-2.146-3.038s-1.362-1.127-4.244-1.796a8.93 8.93 0 0 0-3.569-.014l-11.717 9.43-3.534 3.966 15.52 20.81A3.066 3.066 0 0 0 77 68.262c0-4.95.03-14.323 0-14.848-.206-2.825 6.656-8.24 6.656-8.24z" opacity=".3"/>
        <path fill="#FFB797" fill-rule="nonzero" d="M61.12 45.381s.23-3.198 5.738-1.642c5.507 1.557 13.991 5.043 16.799 1.685l16.28-1.538-3.284 16.775s-6.647-.107-13.85-4.192a77.46 77.46 0 0 0-13.993-6.15l-7.162-3.397s-.783-.794-.528-1.54z"/>
        <path fill="#FFF" fill-rule="nonzero" d="M62.133 46.57c1.001.514 2.063.9 3.162 1.149a1.48 1.48 0 0 0 1.587-.747c.267-.508.32-1.102.148-1.65-.44-.996-3.626-1.684-4.53-1.007-1.136.84-.367 2.255-.367 2.255z" opacity=".4"/>
    </g>
</svg>
