<svg width="22" height="26" viewBox="0 0 22 26" fill="none" xmlns="http://www.w3.org/2000/svg">
<path d="M18.3982 13.3147C18.3863 11.2807 19.3079 9.74776 21.1689 8.61744C20.128 7.12625 18.5533 6.30609 16.4776 6.14803C14.5122 5.99295 12.3619 7.29326 11.5746 7.29326C10.7425 7.29326 8.83973 6.20171 7.34257 6.20171C4.25283 6.24943 0.969238 8.66515 0.969238 13.5801C0.969238 15.0325 1.23467 16.5327 1.76553 18.0775C2.47534 20.1115 5.03421 25.0951 7.70344 25.0145C9.09919 24.9817 10.0864 24.0244 11.9026 24.0244C13.6652 24.0244 14.5778 25.0145 16.1346 25.0145C18.8277 24.9758 21.142 20.4455 21.816 18.4056C18.2044 16.7027 18.3982 13.4191 18.3982 13.3147ZM15.2638 4.21843C16.7758 2.42304 16.6386 0.7887 16.5939 0.201172C15.2578 0.278714 13.7129 1.1108 12.8331 2.13375C11.8639 3.23127 11.2942 4.58825 11.4165 6.11821C12.86 6.22855 14.1782 5.48594 15.2638 4.21843Z" fill="white"/>
</svg>
