<svg width="130" height="48" viewBox="0 0 130 48" fill="none" xmlns="http://www.w3.org/2000/svg">
<rect width="129.793" height="47.2158" rx="6.1079" fill="black"/>
<path d="M28.3982 24.3147C28.3863 22.2807 29.3079 20.7478 31.1689 19.6174C30.128 18.1262 28.5533 17.3061 26.4776 17.148C24.5122 16.9929 22.3619 18.2933 21.5746 18.2933C20.7425 18.2933 18.8397 17.2017 17.3426 17.2017C14.2528 17.2494 10.9692 19.6652 10.9692 24.5801C10.9692 26.0325 11.2347 27.5327 11.7655 29.0775C12.4753 31.1115 15.0342 36.0951 17.7034 36.0145C19.0992 35.9817 20.0864 35.0244 21.9026 35.0244C23.6652 35.0244 24.5778 36.0145 26.1346 36.0145C28.8277 35.9758 31.142 31.4455 31.816 29.4056C28.2044 27.7027 28.3982 24.4191 28.3982 24.3147ZM25.2638 15.2184C26.7758 13.423 26.6386 11.7887 26.5939 11.2012C25.2578 11.2787 23.7129 12.1108 22.8331 13.1338C21.8639 14.2313 21.2942 15.5882 21.4165 17.1182C22.86 17.2286 24.1782 16.4859 25.2638 15.2184Z" fill="white"/>
<path d="M47.1454 18.1079H45.0892V11.4447H47.2365C47.8828 11.4447 48.4359 11.5781 48.8958 11.8449C49.3556 12.1095 49.708 12.4902 49.9531 12.9869C50.1982 13.4814 50.3208 14.0736 50.3208 14.7633C50.3208 15.4574 50.1972 16.055 49.9499 16.556C49.7026 17.0549 49.3426 17.4388 48.8697 17.7077C48.3969 17.9745 47.8221 18.1079 47.1454 18.1079ZM45.896 17.3921H47.0933C47.6442 17.3921 48.1008 17.2859 48.463 17.0733C48.8253 16.8607 49.0953 16.5582 49.2732 16.1656C49.451 15.773 49.5399 15.3056 49.5399 14.7633C49.5399 14.2254 49.4521 13.7623 49.2764 13.3741C49.1007 12.9836 48.8383 12.6843 48.4891 12.4761C48.1399 12.2657 47.705 12.1605 47.1844 12.1605H45.896V17.3921ZM53.6003 18.212C53.1492 18.212 52.7533 18.1047 52.4128 17.8899C52.0744 17.6752 51.8098 17.3748 51.6189 16.9887C51.4302 16.6026 51.3359 16.1515 51.3359 15.6352C51.3359 15.1147 51.4302 14.6603 51.6189 14.272C51.8098 13.8838 52.0744 13.5823 52.4128 13.3676C52.7533 13.1528 53.1492 13.0455 53.6003 13.0455C54.0515 13.0455 54.4462 13.1528 54.7846 13.3676C55.1251 13.5823 55.3897 13.8838 55.5784 14.272C55.7693 14.6603 55.8647 15.1147 55.8647 15.6352C55.8647 16.1515 55.7693 16.6026 55.5784 16.9887C55.3897 17.3748 55.1251 17.6752 54.7846 17.8899C54.4462 18.1047 54.0515 18.212 53.6003 18.212ZM53.6003 17.5223C53.943 17.5223 54.225 17.4344 54.4462 17.2587C54.6675 17.0831 54.8312 16.8521 54.9375 16.5658C55.0438 16.2794 55.0969 15.9693 55.0969 15.6352C55.0969 15.3012 55.0438 14.99 54.9375 14.7015C54.8312 14.413 54.6675 14.1799 54.4462 14.002C54.225 13.8241 53.943 13.7352 53.6003 13.7352C53.2576 13.7352 52.9756 13.8241 52.7544 14.002C52.5332 14.1799 52.3694 14.413 52.2631 14.7015C52.1568 14.99 52.1037 15.3012 52.1037 15.6352C52.1037 15.9693 52.1568 16.2794 52.2631 16.5658C52.3694 16.8521 52.5332 17.0831 52.7544 17.2587C52.9756 17.4344 53.2576 17.5223 53.6003 17.5223ZM57.999 18.1079L56.4764 13.1105H57.2833L58.3634 16.9367H58.4155L59.4826 13.1105H60.3025L61.3567 16.9236H61.4087L62.4889 13.1105H63.2957L61.7731 18.1079H61.0183L59.9251 14.2688H59.847L58.7539 18.1079H57.999ZM65.0787 15.1017V18.1079H64.3108V13.1105H65.0526V13.8914H65.1177C65.2348 13.6376 65.4127 13.4337 65.6513 13.2797C65.8899 13.1235 66.1979 13.0455 66.5753 13.0455C66.9136 13.0455 67.2097 13.1149 67.4635 13.2537C67.7172 13.3903 67.9146 13.5986 68.0556 13.8784C68.1966 14.156 68.2671 14.5074 68.2671 14.9325V18.1079H67.4993V14.9845C67.4993 14.592 67.3973 14.2861 67.1934 14.0671C66.9895 13.8458 66.7097 13.7352 66.354 13.7352C66.1089 13.7352 65.8899 13.7883 65.6968 13.8946C65.506 14.0009 65.3552 14.156 65.2446 14.3599C65.134 14.5638 65.0787 14.811 65.0787 15.1017ZM70.438 11.4447V18.1079H69.6702V11.4447H70.438ZM73.8745 18.212C73.4233 18.212 73.0275 18.1047 72.687 17.8899C72.3486 17.6752 72.084 17.3748 71.8931 16.9887C71.7044 16.6026 71.6101 16.1515 71.6101 15.6352C71.6101 15.1147 71.7044 14.6603 71.8931 14.272C72.084 13.8838 72.3486 13.5823 72.687 13.3676C73.0275 13.1528 73.4233 13.0455 73.8745 13.0455C74.3257 13.0455 74.7204 13.1528 75.0588 13.3676C75.3993 13.5823 75.6639 13.8838 75.8526 14.272C76.0435 14.6603 76.1389 15.1147 76.1389 15.6352C76.1389 16.1515 76.0435 16.6026 75.8526 16.9887C75.6639 17.3748 75.3993 17.6752 75.0588 17.8899C74.7204 18.1047 74.3257 18.212 73.8745 18.212ZM73.8745 17.5223C74.2172 17.5223 74.4992 17.4344 74.7204 17.2587C74.9416 17.0831 75.1054 16.8521 75.2117 16.5658C75.318 16.2794 75.3711 15.9693 75.3711 15.6352C75.3711 15.3012 75.318 14.99 75.2117 14.7015C75.1054 14.413 74.9416 14.1799 74.7204 14.002C74.4992 13.8241 74.2172 13.7352 73.8745 13.7352C73.5318 13.7352 73.2498 13.8241 73.0286 14.002C72.8074 14.1799 72.6436 14.413 72.5373 14.7015C72.431 14.99 72.3779 15.3012 72.3779 15.6352C72.3779 15.9693 72.431 16.2794 72.5373 16.5658C72.6436 16.8521 72.8074 17.0831 73.0286 17.2587C73.2498 17.4344 73.5318 17.5223 73.8745 17.5223ZM78.7816 18.225C78.4649 18.225 78.1775 18.1654 77.9194 18.0461C77.6613 17.9246 77.4563 17.75 77.3045 17.5223C77.1527 17.2924 77.0768 17.0147 77.0768 16.6894C77.0768 16.4031 77.1332 16.171 77.2459 15.9931C77.3587 15.8131 77.5095 15.6721 77.6982 15.5702C77.8869 15.4682 78.0951 15.3923 78.3228 15.3424C78.5528 15.2904 78.7838 15.2492 79.0158 15.2188C79.3195 15.1798 79.5657 15.1505 79.7544 15.131C79.9453 15.1093 80.0841 15.0735 80.1708 15.0236C80.2598 14.9737 80.3042 14.8869 80.3042 14.7633V14.7373C80.3042 14.4163 80.2164 14.1668 80.0407 13.989C79.8672 13.8111 79.6036 13.7222 79.2501 13.7222C78.8835 13.7222 78.5961 13.8024 78.3879 13.963C78.1797 14.1235 78.0333 14.2948 77.9487 14.477L77.2199 14.2167C77.3501 13.9131 77.5236 13.6766 77.7405 13.5075C77.9595 13.3361 78.1981 13.2168 78.4562 13.1496C78.7165 13.0802 78.9725 13.0455 79.2241 13.0455C79.3846 13.0455 79.5689 13.065 79.7772 13.104C79.9876 13.1409 80.1904 13.2179 80.3856 13.335C80.5829 13.4522 80.7467 13.6289 80.8768 13.8653C81.007 14.1018 81.0721 14.4184 81.0721 14.8154V18.1079H80.3042V17.4312H80.2652C80.2131 17.5396 80.1264 17.6557 80.0049 17.7793C79.8834 17.9029 79.7219 18.0081 79.5201 18.0949C79.3184 18.1817 79.0722 18.225 78.7816 18.225ZM78.8987 17.5353C79.2024 17.5353 79.4583 17.4756 79.6665 17.3564C79.8769 17.2371 80.0353 17.0831 80.1416 16.8944C80.25 16.7057 80.3042 16.5072 80.3042 16.299V15.5962C80.2717 15.6352 80.2001 15.671 80.0895 15.7036C79.981 15.7339 79.8552 15.7611 79.7121 15.7849C79.5711 15.8066 79.4334 15.8261 79.2989 15.8435C79.1666 15.8587 79.0592 15.8717 78.9768 15.8825C78.7773 15.9085 78.5907 15.9508 78.4172 16.0094C78.2458 16.0658 78.107 16.1515 78.0008 16.2664C77.8966 16.3792 77.8446 16.5332 77.8446 16.7284C77.8446 16.9952 77.9433 17.1969 78.1407 17.3336C78.3402 17.4681 78.5929 17.5353 78.8987 17.5353ZM84.3605 18.212C83.9441 18.212 83.5764 18.1068 83.2576 17.8964C82.9388 17.6839 82.6893 17.3845 82.5093 16.9985C82.3293 16.6102 82.2392 16.1515 82.2392 15.6222C82.2392 15.0973 82.3293 14.6418 82.5093 14.2558C82.6893 13.8697 82.9398 13.5714 83.2608 13.3611C83.5819 13.1507 83.9528 13.0455 84.3735 13.0455C84.6989 13.0455 84.9559 13.0997 85.1446 13.2081C85.3355 13.3144 85.4808 13.4359 85.5806 13.5725C85.6825 13.707 85.7617 13.8176 85.8181 13.9044H85.8832V11.4447H86.651V18.1079H85.9092V17.3401H85.8181C85.7617 17.4312 85.6815 17.5461 85.5773 17.685C85.4732 17.8216 85.3247 17.9442 85.1316 18.0526C84.9386 18.1589 84.6815 18.212 84.3605 18.212ZM84.4646 17.5223C84.7726 17.5223 85.0329 17.442 85.2455 17.2815C85.458 17.1188 85.6196 16.8944 85.7303 16.608C85.8409 16.3196 85.8962 15.9866 85.8962 15.6092C85.8962 15.2362 85.842 14.9097 85.7335 14.6299C85.6251 14.3479 85.4646 14.1289 85.252 13.9727C85.0394 13.8144 84.777 13.7352 84.4646 13.7352C84.1393 13.7352 83.8682 13.8187 83.6513 13.9857C83.4365 14.1506 83.2749 14.3751 83.1665 14.6592C83.0602 14.9412 83.0071 15.2578 83.0071 15.6092C83.0071 15.9649 83.0613 16.2881 83.1697 16.5788C83.2804 16.8672 83.443 17.0972 83.6578 17.2685C83.8747 17.4377 84.1436 17.5223 84.4646 17.5223ZM92.7708 18.212C92.3197 18.212 91.9238 18.1047 91.5833 17.8899C91.2449 17.6752 90.9803 17.3748 90.7894 16.9887C90.6007 16.6026 90.5064 16.1515 90.5064 15.6352C90.5064 15.1147 90.6007 14.6603 90.7894 14.272C90.9803 13.8838 91.2449 13.5823 91.5833 13.3676C91.9238 13.1528 92.3197 13.0455 92.7708 13.0455C93.222 13.0455 93.6167 13.1528 93.9551 13.3676C94.2956 13.5823 94.5603 13.8838 94.749 14.272C94.9398 14.6603 95.0353 15.1147 95.0353 15.6352C95.0353 16.1515 94.9398 16.6026 94.749 16.9887C94.5603 17.3748 94.2956 17.6752 93.9551 17.8899C93.6167 18.1047 93.222 18.212 92.7708 18.212ZM92.7708 17.5223C93.1135 17.5223 93.3955 17.4344 93.6167 17.2587C93.838 17.0831 94.0017 16.8521 94.108 16.5658C94.2143 16.2794 94.2674 15.9693 94.2674 15.6352C94.2674 15.3012 94.2143 14.99 94.108 14.7015C94.0017 14.413 93.838 14.1799 93.6167 14.002C93.3955 13.8241 93.1135 13.7352 92.7708 13.7352C92.4281 13.7352 92.1462 13.8241 91.9249 14.002C91.7037 14.1799 91.5399 14.413 91.4336 14.7015C91.3274 14.99 91.2742 15.3012 91.2742 15.6352C91.2742 15.9693 91.3274 16.2794 91.4336 16.5658C91.5399 16.8521 91.7037 17.0831 91.9249 17.2587C92.1462 17.4344 92.4281 17.5223 92.7708 17.5223ZM96.9752 15.1017V18.1079H96.2073V13.1105H96.9491V13.8914H97.0142C97.1313 13.6376 97.3092 13.4337 97.5478 13.2797C97.7864 13.1235 98.0944 13.0455 98.4718 13.0455C98.8101 13.0455 99.1062 13.1149 99.36 13.2537C99.6138 13.3903 99.8111 13.5986 99.9521 13.8784C100.093 14.156 100.164 14.5074 100.164 14.9325V18.1079H99.3958V14.9845C99.3958 14.592 99.2938 14.2861 99.0899 14.0671C98.8861 13.8458 98.6063 13.7352 98.2505 13.7352C98.0054 13.7352 97.7864 13.7883 97.5933 13.8946C97.4025 14.0009 97.2517 14.156 97.1411 14.3599C97.0305 14.5638 96.9752 14.811 96.9752 15.1017ZM106.317 13.1105V13.7612H103.727V13.1105H106.317ZM104.482 11.9132H105.25V16.6764C105.25 16.8933 105.281 17.0559 105.344 17.1644C105.409 17.2707 105.491 17.3423 105.591 17.3791C105.693 17.4138 105.801 17.4312 105.913 17.4312C105.998 17.4312 106.067 17.4268 106.122 17.4182C106.176 17.4073 106.219 17.3986 106.252 17.3921L106.408 18.0819C106.356 18.1014 106.283 18.1209 106.19 18.1404C106.097 18.1621 105.978 18.173 105.835 18.173C105.618 18.173 105.406 18.1263 105.198 18.0331C104.992 17.9398 104.82 17.7977 104.684 17.6069C104.549 17.416 104.482 17.1752 104.482 16.8846V11.9132ZM108.347 15.1017V18.1079H107.579V11.4447H108.347V13.8914H108.412C108.529 13.6333 108.705 13.4283 108.939 13.2765C109.176 13.1225 109.49 13.0455 109.883 13.0455C110.223 13.0455 110.521 13.1138 110.777 13.2504C111.033 13.3849 111.232 13.5921 111.373 13.8719C111.516 14.1495 111.587 14.503 111.587 14.9325V18.1079H110.82V14.9845C110.82 14.5876 110.717 14.2807 110.511 14.0638C110.307 13.8447 110.024 13.7352 109.661 13.7352C109.41 13.7352 109.184 13.7883 108.985 13.8946C108.787 14.0009 108.631 14.156 108.516 14.3599C108.403 14.5638 108.347 14.811 108.347 15.1017ZM115.087 18.212C114.606 18.212 114.191 18.1057 113.841 17.8932C113.494 17.6784 113.226 17.3791 113.038 16.9952C112.851 16.6091 112.758 16.1601 112.758 15.6483C112.758 15.1364 112.851 14.6852 113.038 14.2948C113.226 13.9022 113.489 13.5964 113.825 13.3773C114.163 13.1561 114.558 13.0455 115.009 13.0455C115.27 13.0455 115.527 13.0888 115.78 13.1756C116.034 13.2624 116.265 13.4033 116.473 13.5986C116.682 13.7916 116.848 14.0475 116.971 14.3664C117.095 14.6852 117.157 15.0778 117.157 15.5442V15.8695H113.304V15.2058H116.376C116.376 14.9238 116.319 14.6722 116.207 14.451C116.096 14.2297 115.938 14.0551 115.732 13.9272C115.528 13.7992 115.287 13.7352 115.009 13.7352C114.703 13.7352 114.439 13.8111 114.215 13.963C113.994 14.1126 113.824 14.3078 113.705 14.5486C113.585 14.7893 113.526 15.0475 113.526 15.3229V15.7654C113.526 16.1428 113.591 16.4627 113.721 16.7252C113.853 16.9855 114.037 17.1839 114.271 17.3206C114.505 17.455 114.777 17.5223 115.087 17.5223C115.289 17.5223 115.471 17.4941 115.634 17.4377C115.799 17.3791 115.941 17.2924 116.06 17.1774C116.179 17.0603 116.272 16.915 116.337 16.7414L117.079 16.9497C117 17.2013 116.869 17.4225 116.685 17.6134C116.501 17.8021 116.273 17.9496 116.002 18.0559C115.731 18.16 115.426 18.212 115.087 18.212ZM45.9025 37.1079H44.6337L48.3036 27.1132H49.553L53.2229 37.1079H51.954L48.9673 28.6944H48.8892L45.9025 37.1079ZM46.371 33.2037H51.4855V34.2774H46.371V33.2037ZM54.6235 39.9189V29.6118H55.7362V30.8026H55.8729C55.9575 30.6725 56.0746 30.5066 56.2243 30.3048C56.3772 30.0999 56.5952 29.9177 56.8782 29.7583C57.1645 29.5956 57.5517 29.5142 58.0397 29.5142C58.6709 29.5142 59.2272 29.672 59.7088 29.9876C60.1903 30.3032 60.5661 30.7506 60.8361 31.3297C61.1061 31.9088 61.2412 32.5921 61.2412 33.3794C61.2412 34.1733 61.1061 34.8614 60.8361 35.4437C60.5661 36.0229 60.1919 36.4719 59.7136 36.7907C59.2354 37.1063 58.6839 37.2641 58.0592 37.2641C57.5777 37.2641 57.1922 37.1844 56.9026 37.0249C56.6131 36.8623 56.3902 36.6784 56.234 36.4735C56.0779 36.2653 55.9575 36.0928 55.8729 35.9562H55.7753V39.9189H54.6235ZM55.7558 33.3599C55.7558 33.926 55.8387 34.4254 56.0046 34.8581C56.1706 35.2876 56.413 35.6243 56.7318 35.8683C57.0506 36.1091 57.4411 36.2295 57.9031 36.2295C58.3846 36.2295 58.7864 36.1026 59.1085 35.8488C59.4338 35.5918 59.6779 35.2469 59.8405 34.8142C60.0065 34.3782 60.0894 33.8935 60.0894 33.3599C60.0894 32.8328 60.0081 32.3578 59.8454 31.9348C59.686 31.5086 59.4436 31.1719 59.1182 30.9246C58.7962 30.6741 58.3911 30.5489 57.9031 30.5489C57.4346 30.5489 57.0409 30.6676 56.722 30.9051C56.4032 31.1394 56.1624 31.468 55.9998 31.8909C55.8371 32.3106 55.7558 32.8003 55.7558 33.3599ZM62.998 39.9189V29.6118H64.1107V30.8026H64.2474C64.332 30.6725 64.4491 30.5066 64.5988 30.3048C64.7517 30.0999 64.9697 29.9177 65.2527 29.7583C65.539 29.5956 65.9262 29.5142 66.4142 29.5142C67.0454 29.5142 67.6017 29.672 68.0833 29.9876C68.5648 30.3032 68.9406 30.7506 69.2106 31.3297C69.4806 31.9088 69.6157 32.5921 69.6157 33.3794C69.6157 34.1733 69.4806 34.8614 69.2106 35.4437C68.9406 36.0229 68.5664 36.4719 68.0881 36.7907C67.6099 37.1063 67.0584 37.2641 66.4337 37.2641C65.9522 37.2641 65.5667 37.1844 65.2771 37.0249C64.9876 36.8623 64.7647 36.6784 64.6085 36.4735C64.4524 36.2653 64.332 36.0928 64.2474 35.9562H64.1498V39.9189H62.998ZM64.1303 33.3599C64.1303 33.926 64.2132 34.4254 64.3792 34.8581C64.5451 35.2876 64.7875 35.6243 65.1063 35.8683C65.4252 36.1091 65.8156 36.2295 66.2776 36.2295C66.7591 36.2295 67.1609 36.1026 67.483 35.8488C67.8083 35.5918 68.0524 35.2469 68.215 34.8142C68.381 34.3782 68.4639 33.8935 68.4639 33.3599C68.4639 32.8328 68.3826 32.3578 68.2199 31.9348C68.0605 31.5086 67.8181 31.1719 67.4928 30.9246C67.1707 30.6741 66.7656 30.5489 66.2776 30.5489C65.8091 30.5489 65.4154 30.6676 65.0966 30.9051C64.7777 31.1394 64.537 31.468 64.3743 31.8909C64.2116 32.3106 64.1303 32.8003 64.1303 33.3599ZM76.9946 29.6118C76.936 29.1173 76.6985 28.7334 76.2821 28.4601C75.8656 28.1868 75.3548 28.0502 74.7497 28.0502C74.3072 28.0502 73.92 28.1217 73.5882 28.2649C73.2596 28.4081 73.0026 28.6049 72.8171 28.8554C72.6349 29.1059 72.5438 29.3906 72.5438 29.7095C72.5438 29.9762 72.6073 30.2056 72.7341 30.3976C72.8643 30.5863 73.0302 30.7441 73.2319 30.871C73.4336 30.9946 73.6451 31.0971 73.8664 31.1784C74.0876 31.2565 74.2909 31.3199 74.4764 31.3687L75.4915 31.642C75.7518 31.7104 76.0413 31.8047 76.3602 31.9251C76.6823 32.0455 76.9897 32.2098 77.2825 32.418C77.5786 32.623 77.8226 32.8865 78.0146 33.2086C78.2065 33.5307 78.3025 33.926 78.3025 34.3945C78.3025 34.9346 78.161 35.4226 77.8779 35.8586C77.5981 36.2945 77.1882 36.641 76.6481 36.8981C76.1113 37.1551 75.459 37.2836 74.6911 37.2836C73.9754 37.2836 73.3556 37.1681 72.8317 36.9371C72.3112 36.7061 71.9012 36.384 71.6019 35.9708C71.3059 35.5576 71.1383 35.0777 71.0993 34.5311H72.3486C72.3811 34.9085 72.508 35.2209 72.7293 35.4681C72.9538 35.7122 73.2368 35.8944 73.5784 36.0147C73.9233 36.1319 74.2942 36.1904 74.6911 36.1904C75.1531 36.1904 75.5679 36.1156 75.9356 35.9659C76.3032 35.813 76.5944 35.6015 76.8092 35.3315C77.0239 35.0582 77.1312 34.7394 77.1312 34.375C77.1312 34.0431 77.0385 33.7731 76.8531 33.5648C76.6676 33.3566 76.4236 33.1874 76.121 33.0573C75.8185 32.9272 75.4915 32.8133 75.1401 32.7157L73.9103 32.3643C73.1294 32.1398 72.5113 31.8193 72.0558 31.4029C71.6003 30.9864 71.3726 30.4415 71.3726 29.768C71.3726 29.2084 71.5238 28.7204 71.8264 28.3039C72.1322 27.8842 72.5422 27.5589 73.0562 27.3279C73.5735 27.0936 74.151 26.9765 74.7887 26.9765C75.4329 26.9765 76.0055 27.092 76.5066 27.323C77.0076 27.5508 77.4045 27.8631 77.6974 28.26C77.9934 28.6569 78.1496 29.1076 78.1659 29.6118H76.9946ZM83.3963 29.6118V30.5879H79.5116V29.6118H83.3963ZM80.6438 27.8159H81.7955V34.9606C81.7955 35.286 81.8427 35.53 81.9371 35.6926C82.0347 35.8521 82.1583 35.9594 82.308 36.0147C82.4609 36.0668 82.6219 36.0928 82.7911 36.0928C82.918 36.0928 83.0221 36.0863 83.1035 36.0733C83.1848 36.057 83.2499 36.044 83.2987 36.0343L83.5329 37.0689C83.4548 37.0981 83.3458 37.1274 83.2059 37.1567C83.066 37.1892 82.8887 37.2055 82.674 37.2055C82.3486 37.2055 82.0298 37.1356 81.7175 36.9957C81.4084 36.8558 81.1514 36.6427 80.9464 36.3564C80.7447 36.07 80.6438 35.7089 80.6438 35.2729V27.8159ZM88.0935 37.2641C87.4168 37.2641 86.823 37.103 86.3122 36.7809C85.8047 36.4588 85.4077 36.0082 85.1214 35.4291C84.8384 34.85 84.6969 34.1733 84.6969 33.3989C84.6969 32.6181 84.8384 31.9365 85.1214 31.3541C85.4077 30.7717 85.8047 30.3195 86.3122 29.9974C86.823 29.6753 87.4168 29.5142 88.0935 29.5142C88.7702 29.5142 89.3624 29.6753 89.8699 29.9974C90.3807 30.3195 90.7777 30.7717 91.0607 31.3541C91.347 31.9365 91.4902 32.6181 91.4902 33.3989C91.4902 34.1733 91.347 34.85 91.0607 35.4291C90.7777 36.0082 90.3807 36.4588 89.8699 36.7809C89.3624 37.103 88.7702 37.2641 88.0935 37.2641ZM88.0935 36.2295C88.6076 36.2295 89.0305 36.0977 89.3624 35.8342C89.6942 35.5706 89.9399 35.2241 90.0993 34.7947C90.2587 34.3652 90.3384 33.9 90.3384 33.3989C90.3384 32.8979 90.2587 32.431 90.0993 31.9983C89.9399 31.5656 89.6942 31.2158 89.3624 30.949C89.0305 30.6822 88.6076 30.5489 88.0935 30.5489C87.5795 30.5489 87.1565 30.6822 86.8246 30.949C86.4928 31.2158 86.2472 31.5656 86.0877 31.9983C85.9283 32.431 85.8486 32.8979 85.8486 33.3989C85.8486 33.9 85.9283 34.3652 86.0877 34.7947C86.2472 35.2241 86.4928 35.5706 86.8246 35.8342C87.1565 36.0977 87.5795 36.2295 88.0935 36.2295ZM93.2483 37.1079V29.6118H94.361V30.7441H94.4391C94.5757 30.3732 94.823 30.0722 95.1809 29.8412C95.5387 29.6102 95.9422 29.4947 96.3912 29.4947C96.4757 29.4947 96.5815 29.4963 96.7084 29.4996C96.8353 29.5029 96.9312 29.5077 96.9963 29.5142V30.6855C96.9573 30.6757 96.8678 30.6611 96.7279 30.6416C96.5912 30.6188 96.4465 30.6074 96.2936 30.6074C95.9292 30.6074 95.6038 30.6839 95.3175 30.8368C95.0344 30.9864 94.81 31.1947 94.644 31.4615C94.4814 31.725 94.4 32.0259 94.4 32.3643V37.1079H93.2483ZM101.276 37.2641C100.554 37.2641 99.931 37.1047 99.4072 36.7858C98.8866 36.4637 98.4848 36.0147 98.2017 35.4389C97.9219 34.8597 97.782 34.1863 97.782 33.4184C97.782 32.6506 97.9219 31.9739 98.2017 31.3883C98.4848 30.7994 98.8785 30.3406 99.3828 30.012C99.8903 29.6802 100.482 29.5142 101.159 29.5142C101.55 29.5142 101.935 29.5793 102.316 29.7095C102.696 29.8396 103.043 30.0511 103.355 30.3439C103.668 30.6334 103.917 31.0174 104.102 31.4956C104.287 31.9739 104.38 32.5628 104.38 33.2623V33.7503H98.6019V32.7547H103.209C103.209 32.3318 103.124 31.9544 102.955 31.6225C102.789 31.2907 102.552 31.0287 102.243 30.8368C101.937 30.6448 101.576 30.5489 101.159 30.5489C100.7 30.5489 100.303 30.6627 99.9684 30.8905C99.6365 31.115 99.3811 31.4078 99.2022 31.7689C99.0232 32.1301 98.9338 32.5172 98.9338 32.9304V33.5941C98.9338 34.1602 99.0314 34.6401 99.2266 35.0338C99.425 35.4242 99.7 35.7219 100.051 35.9269C100.403 36.1286 100.811 36.2295 101.276 36.2295C101.579 36.2295 101.852 36.1872 102.096 36.1026C102.343 36.0147 102.557 35.8846 102.735 35.7122C102.914 35.5365 103.053 35.3185 103.15 35.0582L104.263 35.3705C104.146 35.7479 103.949 36.0798 103.672 36.3661C103.396 36.6492 103.054 36.8704 102.648 37.0298C102.241 37.186 101.784 37.2641 101.276 37.2641Z" fill="white"/>
</svg>
