<svg width="503" height="755" viewBox="0 0 503 755" fill="none" xmlns="http://www.w3.org/2000/svg">
<g opacity="0.2">
<path d="M424.563 667.713C424.563 697.515 347.083 721.673 251.513 721.673C155.943 721.673 78.4497 697.498 78.4497 667.713C78.4497 637.929 155.926 613.758 251.5 613.758C347.074 613.758 424.563 637.898 424.563 667.713Z" fill="#564946"/>
</g>
<g opacity="0.29">
<path d="M246.518 655.446C246.383 663.183 228.555 669.15 206.697 668.77C184.839 668.39 167.23 661.807 167.361 654.066C167.492 646.325 185.324 640.362 207.186 640.742C229.048 641.122 246.653 647.705 246.518 655.446Z" fill="#564946"/>
</g>
<g opacity="0.29">
<path d="M325.151 664.655C325.544 673.248 307.594 681.05 285.064 682.077C262.534 683.103 243.946 676.97 243.558 668.373C243.169 659.775 261.115 651.978 283.645 650.951C306.175 649.924 324.758 656.058 325.151 664.655Z" fill="#564946"/>
</g>
<path d="M319.108 653.769C318.558 650.532 316.633 647.731 314.218 645.469C313.803 644.675 313.338 643.909 312.825 643.175C312.619 642.882 312.334 642.654 312.003 642.518C311.672 642.381 311.309 642.341 310.956 642.402C302.866 635.294 290.334 633.093 279.519 632.608C279.65 632.03 279.631 631.428 279.462 630.86C278.698 628.41 276.681 627.409 274.249 627.169C273.883 627.136 273.514 627.136 273.148 627.169C271.17 624.985 267.59 624.661 264.128 627.715C259.255 628.545 255.984 633.709 255.574 636.854C255.356 638.553 256.203 639.741 257.451 640.48C257.097 640.609 256.801 640.862 256.617 641.192C254.233 645.342 252.181 650.007 251.631 654.704C250.703 657.961 250.653 661.407 251.487 664.69C253.116 670.806 259.172 674.004 264.865 675.869C265.529 676.14 267.079 676.686 267.808 676.546C274.022 678.674 280.008 678.438 286.549 677.114C291.103 677.114 295.718 676.14 300.084 674.676C305.044 673.025 312.31 670.43 314.978 665.966C317.921 663.939 320.03 659.413 319.078 653.782" fill="#666666"/>
<path d="M239.562 636.697C239.953 635.946 240.164 635.114 240.178 634.268C240.377 634.069 240.51 633.813 240.559 633.536C240.608 633.258 240.571 632.973 240.453 632.717C239.104 629.423 236.323 627.134 232.891 626.737C229.607 625.312 226.481 624.373 222.949 625.426C221.11 624.067 217.971 627.409 217.272 629.358L216.364 629.851C214.263 629.105 212.044 628.744 209.815 628.785C203.189 627.589 196.461 627.047 189.73 627.169C187.603 627.2 185.52 627.3 183.542 627.903C183.288 627.599 182.936 627.393 182.547 627.32C182.157 627.246 181.755 627.31 181.407 627.501L177.954 629.248C177.709 629.13 177.439 629.072 177.167 629.079C176.895 629.085 176.629 629.157 176.39 629.288C174.867 630.093 173.428 631.049 172.094 632.14C171.221 632.398 167.357 634.932 165.619 639.772C165.321 640.006 165.118 640.339 165.047 640.711C164.349 644.065 164.676 647.55 165.986 650.715C166.118 651.059 166.371 651.341 166.697 651.51C167.728 653.258 169.109 654.774 170.753 655.963C172.397 657.151 174.269 657.987 176.251 658.417C176.167 658.676 176.144 658.95 176.182 659.219C176.22 659.488 176.319 659.745 176.472 659.97C176.624 660.194 176.826 660.382 177.061 660.517C177.297 660.652 177.56 660.732 177.831 660.75C179.023 660.833 180.211 660.894 181.399 660.946C186.442 662.694 198.427 662.694 203.492 662.541C207.697 663.694 212.225 663.065 216.543 662.13C225.18 661.256 233.716 659.186 240.073 652.803C240.244 652.646 240.38 652.456 240.474 652.244C240.568 652.032 240.617 651.803 240.619 651.572C245.859 646.972 240.92 637.466 239.558 636.719" fill="#666666"/>
<path d="M178.072 292.957C178.072 292.957 206.68 216.211 211.692 207.089C216.705 197.968 219.237 181.927 235.27 178.781C251.304 175.636 249.103 188.008 269.642 199.121C269.642 199.121 285.99 204.888 288.609 208.347C291.229 211.807 295.211 235.607 298.355 253.85C301.499 272.093 308.834 289.497 308.834 289.497C308.834 289.497 279.143 262.447 243.444 265.75C207.745 269.052 188.114 281.948 178.054 292.957" fill="#3A3A3A"/>
<path d="M178.072 292.957C178.072 292.957 206.68 216.211 211.692 207.089C216.705 197.968 219.237 181.927 235.27 178.781C251.303 175.636 249.103 188.008 269.642 199.121C269.642 199.121 285.989 204.888 288.609 208.347C291.229 211.807 295.211 235.607 298.355 253.85C301.499 272.093 308.834 289.497 308.834 289.497C308.834 289.497 279.143 262.447 243.444 265.75C207.745 269.052 188.132 281.948 178.072 292.957Z" stroke="#363636" stroke-width="8" stroke-miterlimit="10"/>
<path d="M233.319 528.738C223.608 529.891 199.06 530.988 195.449 513.304C190.93 491.177 201.82 463.616 177.303 433.635C175.255 431.15 173.146 428.345 171.068 425.27C167.401 419.9 164.137 414.265 161.305 408.412L161.196 408.198C155.956 397.337 151.747 384.782 150.28 371.34C147.119 342.037 156.978 308.508 197.305 278.99C199.722 277.219 202.256 275.614 204.889 274.185C204.889 274.185 204.889 274.185 204.924 274.185C208.912 271.972 213.113 270.17 217.464 268.807C218.211 268.571 218.923 268.37 219.648 268.148C222.949 267.178 226.301 266.395 229.69 265.802C233.458 265.119 237.279 264.774 241.108 264.771C241.414 264.771 241.737 264.771 242.042 264.771C243.889 264.771 245.719 264.723 247.561 264.644C247.867 264.618 248.19 264.613 248.496 264.587C252.578 264.369 259.936 264.526 270.105 266.986C270.144 266.986 270.179 266.986 270.214 267.021C275.051 268.194 279.754 269.866 284.247 272.009C287.527 273.54 290.679 275.329 293.674 277.361C328.788 300.951 342.036 328.367 344 354.111C344.323 358.385 344.349 362.677 344.079 366.954C343.236 380.449 339.617 393.166 334.866 404.27L334.761 404.489C332.21 410.448 329.218 416.209 325.81 421.722C323.854 424.907 321.881 427.838 319.929 430.416C296.787 461.48 308.926 488.517 305.415 510.827C302.202 531.267 270.389 528.301 265.066 527.676L233.319 528.738Z" fill="#40CC57"/>
<path d="M233.319 528.738C223.608 529.891 199.06 530.988 195.449 513.304C190.93 491.177 201.82 463.616 177.303 433.635C175.255 431.15 173.146 428.345 171.068 425.27C167.401 419.9 164.137 414.265 161.305 408.412L161.196 408.198C155.956 397.337 151.747 384.782 150.28 371.34C147.119 342.037 156.978 308.508 197.305 278.99C199.722 277.219 202.256 275.614 204.889 274.185C204.889 274.185 204.889 274.185 204.924 274.185C208.912 271.972 213.113 270.17 217.464 268.807C218.211 268.571 218.923 268.37 219.648 268.148C222.949 267.178 226.301 266.395 229.69 265.802C233.458 265.119 237.279 264.774 241.108 264.771C241.414 264.771 241.737 264.771 242.042 264.771C243.889 264.771 245.719 264.723 247.561 264.644C247.867 264.618 248.19 264.613 248.496 264.587C252.578 264.369 259.936 264.526 270.105 266.986C270.144 266.986 270.179 266.986 270.214 267.021C275.051 268.194 279.754 269.866 284.247 272.009C287.527 273.54 290.679 275.329 293.674 277.361C328.788 300.951 342.036 328.367 344 354.111C344.323 358.385 344.349 362.677 344.079 366.954C343.236 380.449 339.617 393.166 334.866 404.27L334.761 404.489C332.21 410.448 329.218 416.209 325.81 421.722C323.854 424.907 321.881 427.838 319.929 430.416C296.787 461.48 308.926 488.517 305.415 510.827C302.202 531.267 270.389 528.301 265.066 527.676L233.319 528.738Z" stroke="#363636" stroke-width="8" stroke-miterlimit="10"/>
<path d="M219.455 634.95C219.455 634.95 216.836 633.582 216.08 630.673C216.001 630.364 215.954 630.048 215.941 629.729C215.722 626.549 220.001 623.972 225.437 623.744C230.459 623.814 237.79 625.972 240.925 629.742C244.68 634.312 240.689 640.043 234.969 642.092C232.062 643.06 228.974 643.359 225.935 642.966C225.784 642.945 225.645 642.869 225.546 642.752C225.446 642.636 225.393 642.487 225.396 642.334C225.4 642.181 225.459 642.034 225.563 641.922C225.667 641.81 225.809 641.74 225.961 641.725C226.398 641.681 226.835 641.66 227.062 641.647C226.022 641.594 234.825 641.891 238.903 636.575C239.317 636.025 239.651 635.419 239.894 634.775C242.077 629.096 229.258 624.754 223.739 625.509C222.328 625.666 220.955 626.063 219.678 626.684C219.061 626.977 218.502 627.378 218.028 627.868C217.893 628.015 217.773 628.174 217.67 628.344C217.41 628.745 217.267 629.209 217.255 629.686C217.255 629.686 217.255 629.76 217.255 629.633C217.312 632.407 219.875 634.338 219.875 634.338C219.953 634.396 220.006 634.483 220.021 634.579C220.035 634.676 220.011 634.775 219.953 634.854C219.895 634.932 219.809 634.985 219.712 635C219.615 635.014 219.517 634.99 219.438 634.932" fill="#363636"/>
<path d="M227.664 630.826V631.293C227.664 631.245 227.664 631.393 227.664 631.192C227.664 631.236 227.743 631.629 227.751 631.682C227.872 631.984 228.071 632.25 228.328 632.451C229.005 633.053 232.035 633.761 233 634.098C233.212 634.166 233.388 634.316 233.489 634.514C233.591 634.712 233.609 634.943 233.541 635.155C233.473 635.367 233.323 635.543 233.125 635.644C232.927 635.746 232.696 635.765 232.484 635.696C230.371 635.107 229.253 635.159 227.856 634.233C226.712 633.359 226.11 632.446 226.402 630.738C226.428 630.573 226.518 630.424 226.653 630.325C226.788 630.226 226.957 630.184 227.123 630.21C227.269 630.234 227.402 630.308 227.499 630.42C227.596 630.531 227.651 630.673 227.655 630.821" fill="#564946"/>
<path d="M187.472 627.593C184.922 627.859 184.852 627.855 184.468 627.938C177.281 629.117 174.059 630.996 170.863 633.18C168.479 635.163 169.644 634.198 168.33 635.478C166.488 637.396 164.872 640.283 164.662 643.066L164.606 643.94C164.606 643.94 164.606 644.027 164.606 643.94C164.785 647.434 165.274 648.452 166.173 650.309C167.308 652.276 168.863 653.968 170.727 655.263C182.08 663.384 207.404 663.725 221.027 660.986C229.48 659.273 239.671 655.573 241.706 647.15C241.846 646.575 241.946 645.992 242.007 645.403C242.244 643.304 241.903 641.18 241.021 639.261C240.788 638.759 240.53 638.269 240.248 637.793C240.092 637.54 240.035 637.238 240.088 636.945C240.141 636.652 240.301 636.389 240.536 636.207C240.771 636.025 241.065 635.936 241.362 635.958C241.659 635.98 241.937 636.111 242.143 636.325C243.952 638.357 244.937 640.992 244.907 643.712C244.942 655.822 233.415 661.322 221.538 663.589C206.645 666.429 176.251 665.773 166.339 654.341C165.534 653.429 164.827 652.435 164.23 651.375C163.019 649.089 162.402 646.535 162.436 643.948C162.667 640.733 163.174 638.505 166.47 634.438C166.531 634.373 167.78 633.128 168.173 632.765C169.107 631.936 170.112 631.19 171.177 630.537C172.204 629.896 173.273 629.326 174.378 628.829C175.438 628.324 176.536 627.902 177.661 627.566C188.686 623.84 205.003 625.902 216.456 628.79C216.618 628.827 216.76 628.927 216.849 629.068C216.937 629.21 216.967 629.38 216.93 629.543C216.892 629.706 216.792 629.847 216.651 629.936C216.51 630.025 216.339 630.054 216.176 630.017C201.139 627.012 189.891 627.313 187.476 627.636" fill="#363636"/>
<path d="M220.612 649.173C214.032 642.349 207.16 636.312 198.06 632.918C196.429 632.328 194.762 631.842 193.07 631.463C192.952 631.428 192.852 631.349 192.79 631.243C192.728 631.137 192.709 631.011 192.736 630.891C192.763 630.771 192.835 630.666 192.937 630.597C193.038 630.528 193.162 630.501 193.284 630.519C201.702 632.228 206.889 635.211 213.775 640.938C216.47 643.279 218.99 645.814 221.315 648.522C221.391 648.617 221.427 648.737 221.418 648.858C221.409 648.978 221.354 649.091 221.265 649.174C221.177 649.256 221.06 649.301 220.939 649.301C220.818 649.301 220.701 649.255 220.612 649.173Z" fill="#363636"/>
<path d="M277.226 634.255C278.178 633.316 279.44 632.132 279.484 630.93C279.484 630.978 279.484 630.821 279.484 631.031C279.484 631.031 279.431 630.747 279.423 630.729C279.414 630.712 278.606 629.113 275.545 627.934C273.679 627.252 271.686 626.992 269.707 627.173C264.119 627.61 256.578 631.306 256.29 636.749V636.697C256.373 638.802 257.246 639.925 259.726 640.253C261.117 640.352 262.515 640.254 263.878 639.96C264.119 639.919 264.367 639.968 264.574 640.098C264.782 640.227 264.934 640.428 265.004 640.663C265.073 640.897 265.054 641.149 264.951 641.37C264.847 641.592 264.666 641.768 264.442 641.865C261.822 642.966 258.215 643.302 255.871 641.559C253.251 639.615 253.041 635.679 254.836 632.595C257.456 628.13 263.756 625.168 269.585 624.884C270.179 624.858 269.673 624.884 270.764 624.858C272.672 624.875 274.559 625.253 276.327 625.972C278.344 626.846 280.964 628.633 281.16 630.777C281.169 631.18 281.09 631.579 280.929 631.948C280.326 633.399 278.746 634.613 277.375 635.369C277.32 635.4 277.26 635.42 277.197 635.427C277.135 635.435 277.072 635.43 277.011 635.413C276.951 635.396 276.894 635.367 276.845 635.328C276.796 635.289 276.755 635.24 276.724 635.185C276.501 634.783 276.881 634.539 277.218 634.224" fill="#363636"/>
<path d="M264.974 634.001C268.376 633.757 269.707 632.818 270.541 632.289C270.893 632.025 271.223 631.732 271.528 631.415C271.965 630.978 271.856 631.026 272.118 630.742C272.138 630.715 272.165 630.692 272.195 630.676C272.225 630.659 272.258 630.649 272.292 630.646C272.326 630.643 272.361 630.648 272.393 630.659C272.425 630.67 272.455 630.688 272.48 630.712C272.642 630.86 272.528 631.035 272.349 631.398C272.035 632.002 271.606 632.539 271.087 632.979C268.996 634.613 266.507 634.897 263.835 634.727L263.398 634.692C263.358 634.688 263.319 634.677 263.283 634.659C263.248 634.64 263.216 634.614 263.191 634.584C263.165 634.553 263.146 634.517 263.134 634.478C263.123 634.44 263.119 634.4 263.123 634.36C263.158 633.923 263.638 634.137 264.97 634.001" fill="#363636"/>
<path d="M280.519 632.127L282.291 632.154C298.84 632.59 320.37 639.178 320.964 655.787V656.25C320.979 656.423 320.979 656.597 320.964 656.77C320.962 657.701 320.863 658.63 320.667 659.54C320.626 659.867 320.551 660.189 320.444 660.501C320.298 661.133 320.088 661.747 319.816 662.336C315.013 673.388 298.421 677.669 286.531 679.285C281.58 679.949 276.947 680.281 271.978 679.609C251.299 676.905 243.16 660.68 254.347 640.615C254.44 640.436 254.569 640.278 254.725 640.15C254.881 640.022 255.062 639.927 255.256 639.871C255.449 639.814 255.653 639.797 255.853 639.821C256.053 639.845 256.247 639.91 256.422 640.01C256.597 640.111 256.75 640.246 256.871 640.408C256.992 640.569 257.08 640.753 257.128 640.949C257.177 641.145 257.185 641.349 257.153 641.549C257.121 641.748 257.048 641.939 256.941 642.109C254.631 646.268 253.011 650.545 252.518 655.193C250.771 671.23 265.363 677.494 279.126 676.996C290.823 676.511 311.659 672.593 317.026 662.025C317.978 660.118 318.437 658.001 318.362 655.87C317.947 639.947 296.373 634.39 280.462 633.128C280.337 633.112 280.222 633.05 280.141 632.953C280.06 632.857 280.018 632.733 280.023 632.607C280.029 632.482 280.082 632.362 280.171 632.273C280.26 632.184 280.38 632.132 280.506 632.127" fill="#363636"/>
<path d="M259.324 654.481C262.074 652.481 265.01 650.752 268.092 649.317C272.223 647.238 279.545 645.019 283.147 644.328C288.247 643.206 295.674 642.546 300.826 642.184C300.926 642.175 301.025 642.206 301.101 642.27C301.178 642.335 301.226 642.427 301.235 642.526C301.243 642.626 301.212 642.725 301.148 642.802C301.083 642.878 300.991 642.926 300.892 642.935L299.023 643.123C293.168 643.673 287.963 644.647 287.234 644.774C283.086 645.6 274.537 647.268 268.459 650.152C265.385 651.495 262.446 653.129 259.682 655.031C259.61 655.079 259.521 655.097 259.435 655.08C259.349 655.062 259.274 655.012 259.225 654.94C259.176 654.867 259.158 654.778 259.174 654.693C259.19 654.607 259.24 654.531 259.311 654.481" fill="#363636"/>
<path d="M226.263 629.707C225.56 627.96 228.062 604.095 226.922 595.869C225.782 587.643 237.585 594.239 237.585 594.239L236.375 630.183C236.163 630.922 235.793 631.606 235.291 632.189C234.789 632.771 234.167 633.237 233.467 633.556C228.752 633.613 226.97 631.459 226.267 629.707" fill="#EBF0FF"/>
<path d="M226.263 629.707C225.56 627.96 228.062 604.095 226.922 595.869C225.782 587.643 237.585 594.239 237.585 594.239L236.375 630.183C236.163 630.922 235.793 631.606 235.291 632.189C234.789 632.771 234.167 633.237 233.467 633.556C228.747 633.613 226.966 631.455 226.263 629.707Z" stroke="#363636" stroke-width="8" stroke-miterlimit="10"/>
<path d="M274.2 629.899C274.2 629.899 269.996 606.676 272.939 595.655C275.881 584.633 261.189 594.781 261.189 594.781C261.189 594.781 260.407 627.89 264.097 634.097C264.097 634.097 267.66 635.775 274.2 629.934" fill="#EBF0FF"/>
<path d="M274.2 629.899C274.2 629.899 269.996 606.676 272.939 595.655C275.881 584.633 261.189 594.781 261.189 594.781C261.189 594.781 260.407 627.89 264.097 634.097C264.097 634.076 267.66 635.74 274.2 629.899Z" stroke="#363636" stroke-width="8" stroke-miterlimit="10"/>
<path d="M201.72 584.056C201.72 584.056 212.587 574.699 205.152 548.75H294.338C294.338 548.75 290.692 573.174 301.281 584.056C301.281 584.056 249.758 617.156 201.728 584.056" fill="#EBF0FF"/>
<path d="M201.72 584.056C201.72 584.056 212.587 574.699 205.152 548.75H294.338C294.338 548.75 290.692 573.174 301.281 584.056C301.281 584.056 249.745 617.156 201.72 584.056Z" stroke="#363636" stroke-width="8" stroke-miterlimit="10"/>
<path d="M305.8 485.546C305.8 485.546 294.692 501.872 304.926 512.985C304.926 512.985 299.023 530.52 294.338 548.754C294.338 548.754 265.119 560.986 260.822 570.597C260.798 570.637 260.763 570.669 260.721 570.69C260.679 570.71 260.632 570.718 260.585 570.712C260.539 570.706 260.495 570.686 260.46 570.656C260.424 570.625 260.398 570.585 260.385 570.54C259.949 568.303 258.054 562.533 249.762 558.282V524.693C249.762 524.693 272.297 523.574 305.8 485.546Z" fill="#494949"/>
<path d="M305.8 485.546C305.8 485.546 294.692 501.872 304.926 512.985C304.926 512.985 299.023 530.52 294.338 548.754C294.338 548.754 265.119 560.986 260.822 570.597C260.798 570.637 260.763 570.669 260.721 570.69C260.679 570.71 260.632 570.718 260.585 570.712C260.539 570.706 260.495 570.686 260.46 570.656C260.424 570.625 260.398 570.585 260.385 570.54C259.949 568.303 258.054 562.533 249.762 558.282V524.693C249.762 524.693 272.297 523.574 305.8 485.546Z" stroke="#363636" stroke-width="8" stroke-miterlimit="10"/>
<path d="M193.699 485.546C193.699 485.546 204.807 501.867 194.572 512.981C194.572 512.981 200.471 530.516 205.156 548.75C205.156 548.75 234.375 560.982 238.672 570.593C238.696 570.633 238.731 570.665 238.773 570.685C238.815 570.706 238.862 570.713 238.909 570.707C238.955 570.701 238.999 570.682 239.034 570.651C239.07 570.621 239.095 570.581 239.108 570.536C239.545 568.299 241.44 562.528 249.732 558.278V524.688C249.732 524.688 227.206 523.552 193.699 485.546Z" fill="#494949"/>
<path d="M193.699 485.546C193.699 485.546 204.807 501.867 194.572 512.981C194.572 512.981 200.471 530.516 205.156 548.75C205.156 548.75 234.375 560.982 238.672 570.593C238.696 570.633 238.731 570.665 238.773 570.685C238.815 570.706 238.862 570.713 238.909 570.707C238.955 570.701 238.999 570.682 239.034 570.651C239.07 570.621 239.095 570.581 239.108 570.536C239.545 568.299 241.44 562.528 249.732 558.278V524.688C249.732 524.688 227.206 523.552 193.699 485.546Z" stroke="#363636" stroke-width="8" stroke-miterlimit="10"/>
<path d="M246.125 540.651C246.126 541.219 245.958 541.774 245.643 542.247C245.329 542.72 244.881 543.088 244.356 543.306C243.832 543.524 243.255 543.581 242.698 543.47C242.141 543.36 241.629 543.086 241.228 542.685C240.826 542.283 240.553 541.771 240.443 541.214C240.332 540.657 240.389 540.079 240.607 539.555C240.825 539.03 241.193 538.582 241.665 538.267C242.138 537.952 242.693 537.784 243.261 537.785C244.02 537.785 244.749 538.087 245.286 538.624C245.823 539.162 246.125 539.891 246.125 540.651Z" fill="white"/>
<path d="M244.357 543.296C245.819 542.691 246.513 541.014 245.907 539.552C245.302 538.09 243.627 537.396 242.165 538.001C240.704 538.607 240.01 540.283 240.615 541.746C241.22 543.208 242.896 543.902 244.357 543.296Z" stroke="#363636" stroke-width="4" stroke-miterlimit="10"/>
<path d="M246.125 550.174C246.126 550.742 245.958 551.298 245.643 551.771C245.329 552.243 244.881 552.612 244.356 552.829C243.832 553.047 243.255 553.105 242.698 552.994C242.141 552.883 241.629 552.61 241.228 552.208C240.826 551.807 240.553 551.295 240.443 550.738C240.332 550.18 240.389 549.603 240.607 549.078C240.825 548.554 241.193 548.105 241.665 547.79C242.138 547.475 242.693 547.308 243.261 547.309C244.02 547.31 244.748 547.612 245.285 548.149C245.822 548.686 246.124 549.415 246.125 550.174Z" fill="white"/>
<path d="M244.359 552.82C245.82 552.214 246.514 550.538 245.909 549.076C245.304 547.614 243.628 546.919 242.167 547.525C240.705 548.131 240.011 549.807 240.616 551.269C241.222 552.731 242.897 553.426 244.359 552.82Z" stroke="#363636" stroke-width="4" stroke-miterlimit="10"/>
<path d="M267.114 544.901L284.169 539.554V543.171L267.114 547.466V544.901Z" fill="#727272"/>
<path d="M267.114 544.901L284.169 539.554V543.171L267.114 547.466V544.901Z" stroke="#363636" stroke-width="4" stroke-miterlimit="10"/>
<path d="M252.618 368.833C252.094 386.093 246.64 399.924 240.479 399.732C234.318 399.539 229.76 385.394 230.301 368.134C230.843 350.874 236.275 337.044 242.44 337.24C248.605 337.437 253.155 351.578 252.618 368.833Z" fill="#363636"/>
<path d="M245.466 356.593C245.221 364.369 242.776 370.607 239.999 370.519C237.222 370.432 235.166 364.054 235.41 356.278C235.655 348.502 238.122 342.26 240.881 342.351C243.641 342.443 245.71 348.817 245.466 356.593Z" fill="white"/>
<g style="mix-blend-mode:overlay">
<path d="M243.239 358.338L242.661 376.755L250.551 377.003L251.13 358.586L243.239 358.338Z" fill="url(#paint0_linear_1_4055)"/>
</g>
<path d="M215.386 368.702C217.395 382.782 214.95 394.782 209.915 395.498C204.881 396.215 199.183 385.381 197.174 371.297C195.166 357.213 197.611 345.217 202.645 344.5C207.68 343.784 213.378 354.618 215.386 368.702Z" fill="#363636"/>
<path d="M207.85 359.777C208.754 366.124 207.649 371.533 205.383 371.856C203.117 372.179 200.545 367.295 199.641 360.935C198.738 354.574 199.842 349.179 202.108 348.856C204.374 348.532 206.942 353.416 207.85 359.777Z" fill="white"/>
<g style="mix-blend-mode:overlay">
<path d="M213.886 359.956L205.012 361.223L207.275 377.094L216.15 375.828L213.886 359.956Z" fill="url(#paint1_linear_1_4055)"/>
</g>
<path d="M200.964 431.18C204.442 432.281 208.048 432.919 211.692 433.081C216.958 433.435 225.433 432.644 230.659 431.94C262.778 427.655 285.348 409.919 288.339 378.051C288.718 373.402 288.697 368.025 292.705 365.557C293.444 365.121 294.264 364.84 295.115 364.731C297.652 364.53 299.481 365.115 301.7 368.283C302.146 368.955 302.307 369.778 302.147 370.569C301.988 371.36 301.52 372.056 300.848 372.503C300.176 372.949 299.354 373.11 298.563 372.951C297.772 372.791 297.077 372.323 296.63 371.651C296.447 371.366 296.245 371.094 296.023 370.838C295.866 370.655 295.726 370.607 295.875 370.655C295.875 370.655 296.333 370.703 295.831 370.655H296.019C295.918 370.653 295.817 370.661 295.718 370.676C295.414 370.926 295.194 371.263 295.089 371.642C294.521 372.979 294.434 374.757 294.045 378.671C290.203 412.868 265.629 432.251 231.096 435.619C223.442 436.388 211.932 436.672 204.588 434.243C202.772 433.677 201.016 432.93 199.349 432.015C199.191 431.927 198.397 431.613 198.75 430.971C199.104 430.328 199.584 430.704 200.969 431.18" fill="#363636"/>
<path d="M298.076 358.423C301.94 359.611 304.219 364.705 305.437 368.58L306.158 370.904C306.215 371.082 306.2 371.275 306.116 371.442C306.031 371.609 305.883 371.735 305.706 371.793C305.528 371.851 305.334 371.836 305.168 371.751C305.001 371.666 304.875 371.519 304.817 371.341C303.241 366.763 301.962 361.861 298.311 359.751C297.438 359.188 296.495 359.17 296.805 358.471C297.041 357.934 297.595 358.248 298.076 358.423Z" fill="#363636"/>
<path d="M242.234 402.292C244.527 401.156 247.911 398.871 249.605 397.001C250.995 395.586 252.117 393.932 252.919 392.117C253.098 391.68 253.22 391.401 253.22 391.401C253.282 391.261 253.392 391.148 253.531 391.083C253.67 391.018 253.827 391.007 253.974 391.05C254.121 391.094 254.247 391.189 254.328 391.319C254.41 391.449 254.441 391.604 254.417 391.755C253.779 395.249 252.456 397.176 250.02 399.697C247.813 401.782 245.179 403.361 242.3 404.323C242.07 404.404 241.816 404.39 241.596 404.284C241.376 404.179 241.207 403.99 241.125 403.759C240.82 402.886 241.737 402.549 242.234 402.292Z" fill="#363636"/>
<path d="M252.037 400.719C253.484 399.274 255.211 398.14 257.111 397.386C257.158 397.368 257.208 397.361 257.258 397.363C257.309 397.365 257.358 397.378 257.404 397.399C257.449 397.421 257.49 397.451 257.524 397.488C257.557 397.526 257.583 397.57 257.6 397.617C257.801 398.207 256.901 398.054 254.858 399.496C252.653 400.968 252.373 401.68 252.002 401.204C251.949 401.132 251.923 401.044 251.929 400.955C251.936 400.866 251.974 400.782 252.037 400.719Z" fill="#363636"/>
<path d="M208.933 398.906C208.173 399.294 207.349 399.543 206.501 399.64C206.279 399.668 206.056 399.68 205.833 399.675C205.356 399.691 204.878 399.654 204.409 399.565C203.636 399.412 202.884 399.161 202.174 398.818C199.209 397.372 196.703 394.24 195.624 391.672C195.505 391.469 195.471 391.228 195.529 391.001C195.588 390.773 195.734 390.579 195.936 390.459C196.139 390.34 196.38 390.306 196.607 390.364C196.834 390.423 197.029 390.569 197.148 390.772C197.816 391.645 197.72 391.532 198.602 392.593C199.646 393.874 200.849 395.016 202.183 395.992C202.856 396.478 203.59 396.874 204.366 397.172C204.698 397.293 205.038 397.394 205.383 397.473C205.671 397.531 205.963 397.572 206.256 397.595C206.316 397.6 206.376 397.6 206.435 397.595C207.153 397.631 207.872 397.565 208.57 397.399C208.74 397.34 208.925 397.345 209.091 397.412C209.257 397.478 209.393 397.603 209.475 397.763C209.556 397.923 209.577 398.106 209.534 398.28C209.49 398.454 209.385 398.607 209.238 398.709L208.95 398.871" fill="#363636"/>
<path d="M194.843 399.378C193.969 399.251 193.201 399.212 191.729 399.111C191.567 399.1 191.416 399.025 191.309 398.903C191.202 398.78 191.149 398.62 191.16 398.458C191.171 398.296 191.246 398.145 191.368 398.038C191.49 397.931 191.65 397.877 191.812 397.888C191.965 397.888 194.022 398.08 195.026 398.255C196.044 398.416 197.026 398.751 197.93 399.247C198.082 399.338 198.65 399.592 198.366 400.12C197.93 400.898 197.545 399.784 194.851 399.395" fill="#363636"/>
<path d="M250.011 323.204C245.426 320.631 243.951 320.181 240.405 318.835C237.522 317.833 234.581 317.006 231.598 316.358C231.197 316.264 230.818 316.091 230.483 315.85C230.149 315.609 229.865 315.304 229.648 314.953C229.431 314.602 229.285 314.212 229.219 313.805C229.153 313.398 229.168 312.981 229.262 312.58C229.357 312.178 229.53 311.799 229.771 311.464C230.012 311.13 230.316 310.845 230.667 310.628C231.018 310.411 231.408 310.266 231.815 310.199C232.222 310.133 232.638 310.148 233.039 310.243C248.758 314.323 257.927 322.474 259.368 326.69C259.472 326.994 259.452 327.327 259.311 327.616C259.17 327.905 258.921 328.127 258.617 328.232C257.425 328.643 256.408 327.127 249.989 323.204" fill="#363636"/>
<path d="M184.577 338.564C184.848 338.205 186.271 335.995 186.368 335.842C189.306 331.334 193.559 323.864 198.65 320.963C200.864 319.679 203.261 318.508 206.588 318.508C209.841 318.508 210.596 323.064 207.553 324.139C207.05 324.335 206.53 324.481 205.999 324.576C205.614 324.633 205.237 324.73 204.872 324.864C204.383 324.981 203.907 325.143 203.449 325.349C202.877 325.555 202.332 325.828 201.824 326.161C201.575 326.284 200.222 327.219 200.078 327.345C198.779 328.38 197.563 329.515 196.441 330.74C194.939 332.352 191.271 336.803 189.655 338.454C188.829 339.327 187.945 340.142 187.009 340.896C186.337 341.39 185.944 341.661 185.944 341.661C185.784 341.771 185.603 341.848 185.413 341.888C185.222 341.928 185.026 341.93 184.835 341.894C184.644 341.858 184.462 341.785 184.299 341.678C184.137 341.571 183.997 341.433 183.887 341.272C183.228 340.307 183.927 339.525 184.586 338.555" fill="#363636"/>
<path d="M274.087 598.525C273.933 598.463 273.796 598.367 273.684 598.244C273.572 598.122 273.489 597.976 273.441 597.817C270.917 596.31 229.97 567.81 226.097 565.123C225.91 565.031 225.729 564.927 225.555 564.813C208.645 553.381 191.834 541.791 174.841 530.49C174.469 530.246 174.147 529.933 173.893 529.568C173.478 529.302 162.287 521.74 161.951 521.294C161.536 520.949 160.881 520.447 161.287 519.507C161.152 518.114 161.122 519.105 166.278 504.218C166.951 502.278 168.557 501.745 170.024 502.121C170.589 501.866 171.205 501.746 171.823 501.771C173.119 498.83 174.417 495.89 175.718 492.951C176.941 490.203 179.936 490.47 181.346 492.213L186.586 482.781C186.149 482.379 185.459 481.257 183.709 480.597C183.214 480.776 182.684 480.836 182.162 480.771C181.64 480.707 181.141 480.52 180.704 480.226C180.217 480.285 179.737 480.395 179.272 480.553C176.744 481.427 174.696 479.203 175.426 476.735C177.225 470.619 178.818 464.503 180.368 458.309C180.914 456.125 182.595 455.12 184.765 455.714C217.137 464.543 257.753 474.726 262.254 476.386C263.73 475.98 265.817 476.853 266.398 478.57C268.485 480.54 267.852 484.996 264.215 485.616C267.372 488.141 271.319 491.016 275.593 491.296C276.633 490.086 277.913 489.106 279.352 488.418C280.79 487.731 282.357 487.351 283.95 487.303C287.282 487.233 290.5 490.933 287.854 494.017L283.427 499.22C283.574 499.468 283.697 499.73 283.793 500.002L286.976 496.944C288.487 495.498 290.469 495.843 291.849 496.988L295.403 491.387C298.084 487.172 304.232 491.226 302.717 495.546C302.42 496.42 302.119 497.254 301.817 498.11C303.263 497.023 305.184 497.184 306.62 498.075C308.686 496.293 311.978 497.079 312.886 499.264C313.615 498.39 314.362 497.547 315.143 496.721C314.805 496.296 314.381 495.946 313.899 495.695C310.633 494.03 312.506 489.207 316.03 490.391C330.613 495.293 334.412 492.781 336.255 495.817C339.01 495.035 338.997 496.533 338.612 497.101C337.831 498.268 337.036 499.421 336.242 500.596C336.225 500.666 336.205 500.734 336.18 500.801C336.276 501.548 334.993 503.309 332.425 507.564C332.324 507.739 332.172 507.879 331.989 507.966C324.291 524.129 316.707 532.94 311.467 541.603C312.196 543.154 307.843 547.016 296.185 567.679C294.779 570.169 293.5 572.965 291.915 575.481C290.325 578.928 280.213 595.576 277.384 599.687C276.51 600.936 275.244 599.569 274.056 598.612" fill="#8C8C8C"/>
<path d="M313.008 509.626C306.996 507.507 303.446 498.735 304.507 492.278C302.975 491.946 302.573 490.701 302.184 490.05C290.91 495.533 292.578 502.195 289.085 506.611C287.557 508.551 284.754 508.481 282.946 507.114C282.498 506.795 282.173 506.333 282.025 505.803C280.392 504.554 279.458 502.339 279.58 499.928C279.785 495.751 285.505 489.548 288.356 486.599C288.372 486.096 288.432 485.594 288.535 485.101C276.344 490.413 273.956 492.064 269.948 490.71C267.511 489.889 264.237 485.756 264.14 483.144C264.058 480.811 265.45 478.29 267.699 478.037C267.928 477.701 268.247 477.436 268.619 477.272C268.991 477.108 269.401 477.05 269.804 477.107C275.133 477.879 280.566 477.491 285.732 475.971C290.67 471.602 301.376 470.069 307.699 477.155C308.747 478.33 308.943 478.871 309.589 479.728C310.463 478.256 312.733 477.107 315.628 479.457C319.741 480.396 321.741 485.442 322.02 489.649C322.147 491.597 320.274 492.492 318.689 491.584L317.519 490.911L317.405 490.876C316.296 490.469 315.251 489.905 314.301 489.203C314.216 489.916 314.16 490.629 314.13 491.339C315.004 493.65 318.497 498.905 319.724 502.667C321.108 506.874 317.453 511.207 313 509.656" fill="white"/>
<path d="M186.599 493.095C185.232 494.426 183.512 495.335 181.643 495.716C184.136 500.434 176.36 505.515 170.727 506.31C168.972 506.296 167.221 506.15 165.488 505.873C164.994 506.799 164.099 507.157 162.912 507.581C157.759 509.708 153.913 505.37 155.349 501.251C156.336 498.438 158.921 496.695 161.204 494.742C159.414 493.475 160.331 491.937 160.768 491.125C160.295 490.791 159.896 490.363 159.595 489.867C159.295 489.372 159.099 488.82 159.021 488.246C153.987 484.113 160.213 470.833 172.78 471.764C173.461 470.191 176.74 470.422 176.046 473.192C176.046 473.192 175.072 477.124 173.753 481.567C176.032 480.66 178.531 480.464 180.923 481.003C182.307 480.566 186.071 481.103 187.909 484.297C191.681 484.961 190.786 490.775 186.599 493.095Z" fill="white"/>
<path d="M290.592 551.179C288.081 550.218 278.877 547.011 279.877 544.941C279.758 545.201 279.574 545.426 279.342 545.592C279.109 545.759 278.838 545.862 278.553 545.892C278.269 545.921 277.982 545.875 277.721 545.759C277.46 545.642 277.233 545.46 277.065 545.229C276.912 545.184 276.765 545.121 276.628 545.041C272.834 542.761 268.555 541.149 264.878 538.724C263.926 538.1 264.647 536.649 265.677 536.758C269.921 537.195 274.262 539.532 277.942 541.76L281.767 535.146C283.313 532.477 284.789 529.192 287.12 527.139C287.271 527.027 287.451 526.962 287.638 526.951C287.825 526.939 288.012 526.982 288.175 527.075C288.338 527.167 288.471 527.305 288.557 527.472C288.644 527.638 288.68 527.826 288.662 528.013C288.142 530.782 286.339 533.316 285.011 535.771C283.374 538.829 281.645 541.795 279.96 544.801C280.057 544.644 280.198 544.519 280.366 544.441C280.533 544.364 280.72 544.337 280.903 544.364C284.535 544.849 288.426 546.802 291.74 548.296C293.534 549.113 292.447 551.847 290.6 551.14" fill="#AAAAAA"/>
<path d="M303.813 532.062C301.695 532.062 299.525 531.084 297.543 530.398C295.561 529.712 293.421 528.965 291.832 527.606C291.697 527.486 291.603 527.327 291.563 527.152C291.522 526.976 291.537 526.792 291.604 526.625C291.672 526.458 291.79 526.316 291.942 526.219C292.094 526.122 292.272 526.074 292.452 526.082C294.556 526.138 296.674 526.986 298.678 527.576C300.682 528.165 302.944 528.572 304.791 529.664C306.101 530.433 304.961 532.058 303.817 532.062" fill="#AAAAAA"/>
<path d="M314.969 513.623C313.1 513.448 311.301 512.653 309.515 512.09C303.258 510.102 302.333 509.787 302.306 508.826C301.634 509.307 300.73 509.053 297.455 507.821C295.966 507.262 294.399 506.79 293.006 506.004C291.954 505.406 292.198 503.689 293.565 503.82C294.809 503.951 299.922 505.366 300.468 505.537C300.626 505.078 300.834 504.639 301.088 504.226C303.145 500.731 305.096 502.479 304.542 503.597C304.245 504.196 303.839 504.729 303.555 505.344C303.271 505.96 303.21 506.629 302.83 507.175C302.882 507.417 302.882 507.667 302.83 507.909C303.621 507.581 307.983 508.835 308.803 509.058C311.017 509.656 313.558 510.014 315.597 511.067C316.907 511.736 316.501 513.75 314.947 513.601" fill="#AAAAAA"/>
<path d="M244.265 528.969C244.191 528.944 244.119 528.912 244.051 528.873C238.087 525.518 231.825 523.12 225.664 520.189C224.791 519.783 225.079 518.337 226.101 518.524C232.725 519.73 239.257 522.893 245.095 526.147C246.907 521.464 249.378 516.803 252.888 513.252C253.04 513.052 253.265 512.922 253.513 512.888C253.761 512.854 254.012 512.921 254.211 513.072C254.411 513.224 254.541 513.449 254.575 513.697C254.609 513.945 254.542 514.197 254.39 514.396C251.395 519.202 248.531 523.793 246.701 529.214C246.265 530.525 244.518 530.062 244.274 528.969" fill="#AAAAAA"/>
<path d="M275.118 500.098C271.817 499.692 268.101 498.351 265.171 496.769C264.228 496.271 264.481 494.72 265.66 494.873C269.136 495.285 272.554 496.092 275.847 497.28C277.41 497.883 276.768 500.303 275.118 500.098Z" fill="#AAAAAA"/>
<path d="M216.666 481.802C215.884 482.322 215.849 482.134 207.605 479.352C205.335 478.583 202.597 478.085 200.724 476.547C200.261 476.163 200.397 475.271 201.078 475.237C203.296 475.084 205.444 476.053 207.566 476.691C210.457 477.565 213.373 478.386 216.238 479.312C216.48 478.699 216.761 478.102 217.08 477.526C219.534 472.816 220.744 474.795 220.49 475.617C220.202 476.578 219.565 477.443 219.137 478.351C218.39 479.946 218.045 482.493 216.666 481.794" fill="#AAAAAA"/>
<path d="M261.114 573.004C260.15 574.088 258.425 572.816 259.307 571.628C265.254 563.629 264.546 560.93 266.896 561.283C266.603 561.209 257.796 556.321 255.01 554.294C254.92 554.228 254.845 554.145 254.788 554.049C254.732 553.952 254.696 553.845 254.683 553.735C254.412 554.206 254.142 554.504 253.526 554.412C253.425 555.01 252.216 558.37 250.57 560.266C249.749 561.205 248.002 560.379 248.579 559.134C249.074 558.206 249.63 557.311 250.242 556.456C250.779 555.613 251.81 553.796 252.102 553.516C247.579 550.895 242.789 548.541 238.449 545.653C237.606 545.089 238.423 543.958 239.27 544.207C244.182 545.644 248.976 548.318 253.351 550.991C253.845 550.035 259.971 537.886 261.32 537.645C258.953 536.545 256.7 535.199 254.334 534.068C251.862 532.879 249.094 532.054 246.832 530.468C246.099 529.953 246.658 528.913 247.448 528.957C250.173 529.101 252.893 530.402 255.382 531.451C257.937 532.455 260.391 533.698 262.713 535.164C262.975 534.631 269.074 523.264 270.987 520.425C271.009 520.394 271.039 520.372 271.065 520.342C268.511 519.673 266.092 518.319 263.691 517.249C261.918 516.458 255.037 513.592 254.901 512.57C254.758 512.616 254.606 512.632 254.456 512.617C254.306 512.603 254.161 512.559 254.028 512.487C253.085 513.361 252.386 512.64 243.165 508.818C239.995 507.507 236.724 506.393 233.624 504.912C233.397 504.821 233.216 504.643 233.12 504.417C233.024 504.192 233.022 503.938 233.113 503.711C233.205 503.484 233.383 503.302 233.608 503.207C233.833 503.111 234.087 503.108 234.314 503.2C235.973 503.698 253.194 510.019 253.775 510.303C254.98 504.659 259.228 498.901 261.848 496.59C258.543 495.625 255.329 494.087 252.094 492.916C242.815 489.561 239.999 489.745 240.34 488.259C240.034 488.696 239.746 489.024 239.148 488.993C241.23 489.828 237.401 492.96 232.441 503.676C232.315 503.961 232.092 504.191 231.812 504.327C231.856 504.473 231.868 504.626 231.847 504.776C231.827 504.927 231.775 505.072 231.694 505.201C229.174 509.448 227.042 513.915 225.324 518.546C224.996 519.442 223.883 519.516 223.232 519.062C217.473 516.375 211.334 513.994 205.902 510.696C205.029 510.163 205.902 508.949 206.745 509.215C212.386 510.963 217.849 513.772 223.272 516.205C224.922 510.906 228.009 506.026 230.175 503.947C230.04 503.785 229.951 503.591 229.917 503.383C224.04 501.465 217.949 499.334 212.421 496.564C212.326 496.524 212.241 496.464 212.17 496.388C212.1 496.313 212.046 496.224 212.012 496.126C211.978 496.029 211.964 495.925 211.972 495.823C211.981 495.72 212.01 495.62 212.059 495.529C211.186 496.459 210.911 495.966 203.012 492.851C200.431 491.842 197.641 491.068 195.288 489.592C194.511 489.107 195.104 487.906 195.934 488.006C198.292 488.294 209.033 492.283 209.981 492.632C210.78 488.849 213.264 484.856 215.844 482.345C216.416 481.79 217.499 482.611 217.111 483.31C216.137 485.057 215.076 486.752 214.207 488.552C213.391 490.256 212.95 492.082 212.317 493.838C212.434 494.067 212.487 494.323 212.472 494.58C212.457 494.836 212.373 495.084 212.229 495.297C212.91 494.694 213.539 495.433 230.629 501.129C232.485 496.669 236.82 488.775 238.737 488.897C238.584 488.839 238.447 488.745 238.338 488.623C238.23 488.5 238.152 488.353 238.113 488.194C236.803 488.631 231.816 486.106 228.21 485.018C225.228 484.118 221.896 483.804 219.041 482.55C218.277 482.213 218.333 480.929 219.25 480.859C222.743 480.597 237.274 484.275 238.724 486.075C239.453 484.699 240.575 482.882 241.741 481.847C242.457 481.209 243.614 482.126 243.221 482.974C242.785 483.961 242.13 484.874 241.593 485.822C241.243 486.442 240.977 487.132 240.632 487.748C241.824 486.744 257.875 491.243 262.586 493.642C264.485 489.845 265.752 491.37 265.498 492.239C265.345 492.772 265.062 493.27 264.87 493.79C264.726 494.298 264.551 494.797 264.346 495.284C264.294 495.633 264.139 495.958 263.9 496.217C263.661 496.476 263.349 496.656 263.005 496.734C263.988 497.966 261.8 498.866 258.556 504.917C257.421 507.044 256.779 509.359 255.779 511.531C257.054 511.692 269.751 516.498 272.41 518.271C273.091 516.921 274.043 515.676 274.777 514.366C275.711 512.688 276.384 510.81 277.545 509.276C277.647 509.158 277.785 509.074 277.937 509.038C278.09 509.001 278.25 509.014 278.395 509.074C278.54 509.134 278.663 509.238 278.745 509.372C278.828 509.505 278.866 509.662 278.855 509.818C278.728 511.758 277.811 513.549 276.982 515.252C276.413 516.533 275.744 517.768 274.982 518.944C277.248 518.69 279.453 519.857 281.571 520.582C284.033 521.425 286.636 522.233 288.993 523.395C291.666 518.372 295.172 513.212 299.272 509.263C300.145 508.39 301.306 509.796 300.717 510.709C297.626 515.462 294.303 520.049 291.246 524.837C291.155 524.989 291.028 525.117 290.875 525.208C290.723 525.3 290.551 525.352 290.373 525.361C290.303 526.143 289.758 526.816 288.78 526.567C286.251 525.929 283.85 524.82 281.435 523.854C279.099 522.906 276.156 522.107 274.449 520.193C274.369 520.103 274.317 519.99 274.301 519.87C274.12 520.079 273.929 520.279 273.729 520.468C273.619 520.584 273.479 520.667 273.325 520.708C273.171 520.75 273.009 520.749 272.856 520.704C272.907 520.824 272.934 520.952 272.934 521.082C272.934 521.212 272.907 521.341 272.856 521.46C271.668 524.322 270.118 527.043 268.66 529.76C264.477 537.624 264.049 539.323 262.547 538.607C262.547 540.253 255.561 552.193 255.303 552.664C255.94 552.472 260.228 553.538 267.123 557.658C268.226 555.692 269.39 553.757 270.616 551.852C272.078 549.563 273.707 546.763 275.995 545.229C276.145 545.131 276.323 545.082 276.502 545.089C276.681 545.095 276.855 545.157 276.998 545.265C277.141 545.373 277.247 545.523 277.302 545.694C277.357 545.865 277.358 546.049 277.305 546.221C276.58 548.58 274.812 550.664 273.519 552.774C268.607 560.733 269.026 561.755 267.201 561.332C268.074 561.585 268.708 562.402 268.162 563.376C266.177 566.822 263.827 570.044 261.154 572.987" fill="#AAAAAA"/>
<path d="M186.686 500.522C189.433 493.261 192.433 489.225 193.118 488.963C192.876 488.879 192.67 488.713 192.537 488.494C192.404 488.274 192.351 488.015 192.389 487.761C192.93 484.21 194.878 478.631 198.065 476.609C198.198 476.517 198.355 476.47 198.516 476.473C198.677 476.476 198.833 476.53 198.962 476.626C199.09 476.723 199.186 476.857 199.234 477.011C199.282 477.165 199.281 477.329 199.231 477.482C198.711 479.343 197.393 480.977 196.576 482.724C195.76 484.472 195.266 486.438 194.638 488.325C194.589 488.492 194.497 488.643 194.371 488.762C194.246 488.882 194.09 488.966 193.921 489.006C195.471 489.88 192.214 492.344 188.857 501.378C188.333 502.798 186.149 501.915 186.673 500.504" fill="#AAAAAA"/>
<path d="M232.336 551.484C232.613 550.252 233.11 549.08 233.803 548.025C234.541 546.766 235.31 545.404 236.493 544.53C236.126 544.564 235.758 544.468 235.454 544.259C229.699 540.589 223.551 537.772 217.644 534.395C217.569 534.351 217.502 534.295 217.447 534.229C217.502 534.418 217.49 534.62 217.412 534.801C217.054 535.675 216.504 536.413 216.102 537.252C215.644 538.23 215.565 539.34 215.102 540.31C214.64 541.28 213.024 541.249 212.919 540.039C212.766 537.973 214.316 534.937 216.045 533.788C216.246 533.658 216.488 533.609 216.722 533.652C216.957 533.696 217.166 533.827 217.307 534.019C217.287 533.879 217.306 533.736 217.361 533.606C217.417 533.476 217.507 533.363 217.622 533.281C216.875 533.582 215.818 533.124 215.788 532.25C210.374 529.664 204.601 527.34 199.519 524.151C199.386 524.08 199.278 523.968 199.212 523.833C199.145 523.697 199.123 523.544 199.148 523.395C198.996 523.448 198.837 523.476 198.676 523.478C198.813 523.592 198.911 523.746 198.953 523.919C198.995 524.093 198.981 524.275 198.912 524.439C198.134 525.995 197.532 527.633 197.117 529.323C196.803 530.778 194.685 530.551 194.808 529.039C194.974 527.008 195.978 524.727 197.55 523.404C197.654 523.318 197.779 523.261 197.912 523.238C197.77 523.132 197.662 522.987 197.6 522.822C197.538 522.656 197.525 522.476 197.563 522.303C193.013 520.092 188.245 517.934 183.979 515.226C183.875 515.167 183.789 515.079 183.732 514.973C183.676 514.867 183.651 514.747 183.66 514.627C183.554 514.687 183.439 514.73 183.32 514.754C183.388 514.954 183.388 515.17 183.32 515.37C183.027 516.244 182.595 517.091 182.294 517.991C182.01 518.917 181.805 519.866 181.683 520.826C181.438 522.473 179.01 522.137 179.137 520.512C179.303 518.328 180.185 515.837 181.84 514.343H181.809C180.77 513.749 179.696 513.229 178.609 512.736C177.652 512.299 176.508 512.072 175.749 511.325C175.615 511.219 175.514 511.077 175.46 510.915C175.406 510.753 175.401 510.579 175.444 510.414C175.488 510.249 175.579 510.101 175.706 509.987C175.833 509.873 175.991 509.799 176.159 509.774C177.286 509.529 178.478 510.067 179.543 510.412C180.489 510.729 181.415 511.103 182.316 511.534C183.289 508.284 184.73 505.065 186.852 502.457C186.971 502.325 187.131 502.238 187.306 502.21C187.481 502.182 187.66 502.215 187.813 502.304C187.967 502.392 188.085 502.531 188.149 502.696C188.212 502.862 188.217 503.044 188.162 503.212C186.656 506.79 185.154 510.202 184.128 513.963C184.217 513.919 184.314 513.893 184.414 513.886C184.514 513.879 184.614 513.892 184.708 513.924C189.306 515.527 193.799 517.856 198.196 519.966C199.288 516.422 201.069 513.13 203.436 510.276C203.54 510.15 203.675 510.054 203.829 509.997C199.082 507.743 194.039 505.689 189.607 502.867C188.734 502.299 189.577 501.063 190.481 501.347C194.952 502.771 199.261 504.986 203.523 507.026C205.352 503.313 207.073 499.447 209.867 496.336C210.009 496.15 210.219 496.028 210.451 495.997C210.682 495.966 210.917 496.028 211.103 496.17C211.289 496.312 211.411 496.522 211.442 496.754C211.473 496.986 211.411 497.221 211.269 497.407C209.195 500.941 206.833 504.283 205.483 508.193C205.582 508.375 205.639 508.577 205.649 508.784C205.658 508.991 205.622 509.197 205.541 509.388C205.46 509.578 205.336 509.748 205.181 509.885C205.025 510.021 204.84 510.121 204.641 510.176C204.813 510.31 204.926 510.506 204.956 510.722C204.986 510.938 204.931 511.157 204.802 511.334C202.487 514.729 200.832 518.53 199.925 522.539L199.899 522.622C200.057 522.578 200.225 522.578 200.383 522.622C205.872 524.413 211.164 527.244 216.417 529.673C217.661 525.904 219.844 522.515 222.761 519.826C223.634 519.035 224.844 520.354 224.184 521.25C221.615 524.696 219.612 528.53 218.25 532.608C218.178 532.826 218.041 533.017 217.858 533.154C218.009 533.093 218.176 533.084 218.333 533.128C224.769 535.041 230.956 538.466 236.803 541.712C238.733 537.658 241.038 533.097 244.3 530.109C244.872 529.585 245.684 530.337 245.444 530.983C243.798 535.352 240.868 539.454 238.763 543.652C238.614 543.957 238.355 544.195 238.037 544.318C237.72 544.441 237.368 544.441 237.052 544.316L236.973 544.368C237.103 544.377 237.229 544.416 237.341 544.481C237.454 544.547 237.549 544.637 237.621 544.746C237.692 544.855 237.738 544.979 237.753 545.108C237.769 545.237 237.755 545.368 237.711 545.491C237.296 546.618 236.563 547.636 236.008 548.706C235.397 549.886 235.013 551.187 234.297 552.306C233.694 553.254 232.114 552.555 232.293 551.489" fill="#AAAAAA"/>
<path d="M198.868 475.892C198.087 476.171 193.489 475.42 188.655 473.38C187.346 473.127 187.835 470.829 189.363 471.305C192.325 472.179 195.33 472.9 198.366 473.463C198.572 472.882 198.817 472.316 199.1 471.768C201.492 466.814 203.217 468.837 202.759 469.754C202.3 470.672 201.689 471.637 201.244 472.629C200.698 473.847 200.445 476.56 198.868 475.892Z" fill="#AAAAAA"/>
<path d="M261.49 485C196.401 464.276 194.026 465.438 185.206 461.411C185.029 461.334 184.886 461.197 184.801 461.024C184.716 460.851 184.696 460.654 184.744 460.467C184.792 460.281 184.905 460.118 185.062 460.007C185.22 459.896 185.412 459.846 185.603 459.864C193.349 460.816 256.338 480.007 262.721 481.956C264.756 482.58 263.507 485.664 261.49 485.014" fill="#AAAAAA"/>
<path d="M274.55 587.713C273.995 588.364 272.825 587.787 273.201 586.948C277.458 577.447 317.846 516.755 318.226 516.615C319.645 514.164 321.566 511.902 323.029 509.486C324.885 506.397 326.23 503.029 328.116 499.962C328.443 499.438 332.574 497.726 325.282 510.77C323.789 513.448 322.156 516.589 319.916 518.786C319.916 518.786 311.803 530.442 286.566 570.038C282.767 576.001 279.165 582.318 274.558 587.7" fill="#AAAAAA"/>
<path d="M171.675 524.653C168.985 523.129 166.728 521.29 163.754 520.237C163.465 520.117 163.235 519.889 163.113 519.602C162.99 519.314 162.985 518.99 163.099 518.699C164.122 515.932 165.462 513.293 167.095 510.836C167.632 510.045 168.994 510.805 168.566 511.67C167.476 513.842 166.521 516.078 165.706 518.367C168.413 519.241 171.312 520.591 173.129 522.735C173.88 523.609 172.766 525.26 171.679 524.64" fill="#AAAAAA"/>
<path d="M172.16 484.31C174.801 481.925 176.006 479.68 181.949 481.362C188.878 483.45 190.485 488.238 187.756 492.051L187.673 492.169V492.2C187.791 492.06 187.695 492.169 187.717 492.143L187.66 492.204L187.424 492.462C187.298 492.625 187.151 492.772 186.988 492.899C186.857 492.991 186.734 493.087 186.608 493.187L186.119 493.454C184.774 494.113 183.062 494.166 181.316 493.934C178.447 493.585 175.369 492.436 173.365 491.925C169.68 490.798 164.414 493.235 160.563 489.74C154.45 484.367 160.785 473.31 170.033 472.21C172.609 471.943 176.102 472.799 175.827 471.301C175.456 469.322 164.549 466.932 157.72 476.657C154.664 481.375 154.122 486.918 158.297 491.261C162.091 495.114 166.658 494.078 170.304 494.065C171.581 494.02 172.855 494.211 174.063 494.629C176.334 495.373 178.664 495.922 181.028 496.271C182.029 496.401 183.042 496.427 184.049 496.35C185.123 496.266 186.172 495.982 187.14 495.511L187.87 495.101C188.11 494.917 188.35 494.725 188.581 494.528C188.779 494.367 188.959 494.185 189.118 493.987L189.35 493.729L189.411 493.663L189.498 493.554L189.529 493.515L189.647 493.349C190.252 492.469 190.696 491.488 190.957 490.452C191.227 489.407 191.29 488.319 191.14 487.25C190.981 486.175 190.594 485.145 190.005 484.232C189.877 484.002 189.731 483.783 189.568 483.576C189.411 483.359 189.239 483.153 189.053 482.96L188.477 482.371C183.735 478.4 176.557 477.539 173.579 480.256L175.255 481.318C183.294 454.543 183.442 455.373 182.172 454.993C180.901 454.613 181.608 453.63 172.195 484.262" fill="#363636"/>
<path d="M181.477 496.905C181.704 497.236 181.838 497.622 181.866 498.023C181.89 498.509 181.78 498.993 181.547 499.421C179.526 503.746 171.474 508.158 165.532 504.2L165.58 504.239C163.344 502.282 161.475 499.05 161.96 492.16C162.104 490.09 159.165 489.911 158.978 491.842C158.646 495.076 159.086 498.342 160.261 501.374C161.022 503.317 162.285 505.023 163.92 506.319L164.322 506.581C166.942 508.254 170.09 508.521 173.111 507.935C175.504 507.498 177.373 506.384 178.98 505.279C179.202 505.1 179.416 504.912 179.635 504.733C180.063 504.383 180.466 504.002 180.84 503.593C181.185 503.245 181.506 502.874 181.8 502.483C182.402 501.775 182.882 500.972 183.22 500.107C183.51 499.364 183.586 498.554 183.438 497.77C183.32 497.252 183.092 496.767 182.77 496.345C182.665 496.21 182.599 496.153 182.547 496.092L182.469 496.009C182.41 495.945 182.339 495.893 182.26 495.856C182.182 495.819 182.096 495.799 182.009 495.795C181.923 495.791 181.836 495.805 181.754 495.835C181.673 495.865 181.598 495.911 181.534 495.97C181.405 496.088 181.327 496.251 181.316 496.426C181.306 496.6 181.364 496.772 181.477 496.905Z" fill="#363636"/>
<path d="M163.396 506.786C162.65 507.243 161.801 507.505 160.927 507.55C160.053 507.594 159.182 507.418 158.393 507.039C153.939 505.082 155.934 500.006 160.113 497.289C161.641 496.297 160.157 493.982 158.62 494.96C148.617 501.316 154.293 511.657 161.72 509.184C163.497 508.629 165.584 506.834 164.776 506.214C164.34 505.873 164.126 506.327 163.418 506.786" fill="#363636"/>
<path d="M286.889 485.485C280.75 486.73 275.362 493.41 267.629 487.844C266.513 486.992 265.679 485.823 265.236 484.489C264.743 482.742 264.957 481.042 266.153 479.631C268.887 476.421 273.192 480.068 282.597 477.6C288.352 476.075 292.225 473.31 293.377 472.943C299.966 470.257 307.349 475.783 310.899 482.322C311.773 483.969 314.283 482.659 313.44 480.99C311.756 477.872 309.412 475.159 306.572 473.039C292.954 463.254 290.168 476.573 274.296 476.001C272.035 475.944 269.808 475.595 267.983 475.918C262.123 476.919 259.56 486.669 268.546 491.016C276.178 494.768 282.802 488.224 287.225 486.992C287.924 486.8 288.858 486.787 288.71 485.935C288.561 485.083 287.688 485.324 286.871 485.472" fill="#363636"/>
<path d="M313.716 491.374C314.943 497.857 321.824 504.043 317.802 508.158C317.602 508.215 317.741 508.201 317.567 508.271C316.693 508.734 315.074 508.551 314.109 508.306C312.767 507.98 311.488 507.436 310.323 506.694C302.926 501.579 306.437 494.371 304.647 490.902C302.027 485.883 291.928 496.079 289.801 502.26C289.238 503.855 288.963 505.384 288.286 506.118C287.935 506.501 287.48 506.774 286.976 506.904C286.294 507.068 285.583 507.075 284.898 506.923C284.212 506.772 283.57 506.466 283.02 506.03L282.933 505.969C282.933 505.969 282.859 505.912 282.972 506.004L282.898 505.939L282.304 505.427C282.103 505.237 281.912 505.036 281.732 504.825C276.929 499.879 286.046 491.247 287.234 488.347C287.392 488.015 287.474 487.652 287.474 487.285C287.474 486.918 287.392 486.555 287.234 486.223C286.566 484.86 284.509 485.874 285.173 487.233C284.588 488.157 283.931 489.033 283.208 489.854C281.855 491.531 274.646 499.307 278.907 505.663C279.245 506.184 279.639 506.666 280.082 507.101C280.337 507.372 280.614 507.622 280.911 507.848L281.16 508.062L281.278 508.153C281.662 508.435 282.066 508.688 282.488 508.909C283.503 509.468 284.647 509.753 285.806 509.736C286.965 509.719 288.099 509.401 289.098 508.813C290.439 507.878 290.958 506.987 291.491 505.279C292.299 502.575 292.801 499.014 298.87 493.864C299.706 493.114 300.644 492.486 301.656 491.999C302.092 491.82 302.293 491.999 302.184 492.125C302.018 492.16 301.8 491.972 302.084 492.182L301.979 492.112C302.988 495.38 301.302 500.36 305.066 505.397C305.736 506.285 306.503 507.095 307.354 507.813C307.463 507.909 307.917 508.249 308.052 508.372C308.188 508.494 308.17 508.464 308.341 508.581C309.222 509.203 310.178 509.71 311.188 510.089C311.957 510.396 312.752 510.637 313.563 510.809C315.191 511.172 317.231 511.246 318.711 510.451C319.022 510.277 319.314 510.072 319.584 509.84L319.855 509.551L319.946 509.455V509.429C319.946 509.429 320.121 509.224 320.051 509.302C324.321 502.968 316.969 497.127 315.528 490.985C314.702 487.534 316.082 486.354 314.929 486.18C313.982 486.04 313.209 488.897 313.707 491.374" fill="#363636"/>
<path d="M181.599 455.347C181.381 456.22 176.504 454.674 266.743 477.727C266.932 477.766 267.13 477.731 267.294 477.629C267.458 477.527 267.577 477.365 267.624 477.177C267.672 476.989 267.646 476.791 267.551 476.622C267.456 476.453 267.299 476.328 267.114 476.272C266.546 476.128 181.84 454.333 181.582 455.347" fill="#363636"/>
<path d="M159.847 520.896C159.794 521.05 159.803 521.218 159.873 521.365C159.944 521.511 160.069 521.624 160.222 521.678C161.03 521.958 160.702 522.115 166.156 507.35C166.21 507.167 166.193 506.97 166.108 506.799C166.023 506.628 165.876 506.497 165.697 506.43C165.518 506.364 165.32 506.369 165.144 506.443C164.969 506.517 164.828 506.655 164.75 506.83C164.75 506.83 159.847 520.888 159.847 520.896Z" fill="#363636"/>
<path d="M276.331 601.023C276.466 601.115 276.631 601.149 276.79 601.119C276.95 601.089 277.091 600.996 277.183 600.862C277.274 600.727 277.309 600.562 277.278 600.402C277.248 600.243 277.155 600.102 277.021 600.01L160.667 520.123C160.503 520.015 160.303 519.976 160.11 520.015C159.917 520.053 159.747 520.165 159.636 520.328C159.525 520.49 159.482 520.69 159.517 520.884C159.551 521.077 159.66 521.25 159.82 521.364L276.331 601.023Z" fill="#363636"/>
<path d="M339.787 495.655C339.005 495.188 343.28 488.696 275.956 600.526C275.853 600.699 275.824 600.907 275.874 601.102C275.925 601.298 276.05 601.465 276.224 601.568C276.398 601.67 276.605 601.699 276.8 601.649C276.996 601.599 277.163 601.473 277.265 601.299C277.545 600.836 340.704 496.193 339.809 495.655" fill="#363636"/>
<path d="M329.338 500.421L328.028 499.508C268.21 593.348 271.554 587.643 272.214 588.062C272.873 588.482 269.07 593.907 329.369 500.369L328.059 499.456C327.264 500.496 328.535 501.47 329.325 500.421" fill="#363636"/>
<path d="M166.213 518.127C165.719 518.891 159.091 514.247 272.533 587.682C272.615 587.736 272.708 587.772 272.805 587.79C272.902 587.808 273.002 587.807 273.098 587.786C273.195 587.765 273.286 587.726 273.367 587.67C273.449 587.614 273.518 587.542 273.572 587.459C273.625 587.376 273.662 587.284 273.68 587.187C273.698 587.09 273.696 586.99 273.676 586.893C273.655 586.797 273.615 586.705 273.559 586.624C273.503 586.543 273.432 586.473 273.349 586.42C272.912 586.127 166.776 517.253 166.213 518.127Z" fill="#363636"/>
<path d="M166.951 518.747C169.57 510.093 169.815 510.01 169.025 509.77C168.234 509.53 168.383 509.809 165.532 518.289C165.494 518.385 165.476 518.488 165.48 518.592C165.484 518.696 165.509 518.797 165.554 518.891C165.599 518.984 165.663 519.067 165.742 519.135C165.82 519.202 165.912 519.253 166.011 519.283C166.11 519.313 166.215 519.323 166.318 519.311C166.421 519.299 166.52 519.265 166.61 519.213C166.699 519.16 166.777 519.09 166.838 519.006C166.899 518.922 166.942 518.827 166.964 518.725" fill="#564946"/>
<path d="M185.145 461.734C185.184 461.576 185.16 461.409 185.076 461.27C184.993 461.131 184.857 461.031 184.7 460.991C184.542 460.952 184.376 460.977 184.236 461.06C184.097 461.144 183.997 461.279 183.957 461.437C179.774 477.635 179.547 477.443 180.543 477.701C181.538 477.958 181.29 477.867 185.145 461.734Z" fill="#363636"/>
<path d="M262.468 485.599C262.623 485.643 262.788 485.625 262.929 485.548C263.071 485.471 263.176 485.342 263.222 485.188C263.269 485.034 263.253 484.868 263.178 484.726C263.103 484.584 262.975 484.477 262.822 484.428C180.875 459.737 184.228 459.755 183.792 461.113C183.464 462.188 179.469 460.602 262.46 485.577" fill="#363636"/>
<path d="M274.908 500.963C275.061 501.007 275.225 500.989 275.366 500.913C275.506 500.838 275.611 500.71 275.659 500.558C275.707 500.406 275.693 500.241 275.622 500.099C275.55 499.957 275.425 499.848 275.275 499.796L188.494 472.275C188.31 472.234 188.117 472.265 187.954 472.36C187.791 472.456 187.67 472.609 187.615 472.79C187.56 472.97 187.575 473.165 187.657 473.335C187.739 473.505 187.882 473.638 188.057 473.708L274.947 500.95" fill="#363636"/>
<path d="M315.322 514.855C315.476 514.908 315.644 514.898 315.79 514.827C315.937 514.756 316.049 514.63 316.102 514.477C316.155 514.323 316.145 514.155 316.074 514.009C316.004 513.862 315.878 513.75 315.724 513.697L293.456 505.834C293.27 505.775 293.069 505.79 292.895 505.877C292.72 505.964 292.586 506.115 292.521 506.299C292.456 506.482 292.465 506.684 292.545 506.861C292.626 507.039 292.773 507.178 292.954 507.249L315.318 514.877" fill="#363636"/>
<path d="M259.412 574.764C259.368 574.832 259.338 574.907 259.324 574.987C259.31 575.066 259.312 575.147 259.329 575.225C259.347 575.304 259.38 575.378 259.426 575.443C259.472 575.509 259.531 575.565 259.599 575.608C260.363 576.097 257.582 579.889 304.66 506.362C304.765 506.194 304.799 505.992 304.755 505.799C304.712 505.605 304.594 505.437 304.427 505.331C304.26 505.224 304.058 505.188 303.864 505.23C303.671 505.272 303.502 505.388 303.394 505.554L259.412 574.764Z" fill="#363636"/>
<path d="M193.751 488.644C193.675 488.605 193.591 488.583 193.506 488.579C193.42 488.574 193.335 488.588 193.255 488.619C193.176 488.649 193.103 488.697 193.043 488.757C192.982 488.818 192.935 488.89 192.905 488.97C192.874 489.05 192.86 489.135 192.865 489.221C192.869 489.306 192.891 489.389 192.93 489.466C192.968 489.542 193.023 489.609 193.089 489.663C193.155 489.718 193.232 489.757 193.314 489.78C308.755 535.024 304.359 534.338 304.887 533.002C304.923 532.909 304.94 532.81 304.937 532.711C304.934 532.612 304.912 532.514 304.872 532.423C304.831 532.333 304.773 532.251 304.701 532.183C304.628 532.115 304.543 532.062 304.45 532.027L193.751 488.644Z" fill="#363636"/>
<path d="M187.302 501.326C187.155 501.255 186.987 501.245 186.833 501.299C186.68 501.353 186.554 501.465 186.483 501.612C186.413 501.758 186.403 501.927 186.457 502.08C186.51 502.234 186.623 502.36 186.769 502.431C293.491 553.804 289.579 552.974 290.199 551.69C290.284 551.511 290.296 551.305 290.23 551.118C290.165 550.93 290.028 550.776 289.849 550.69L187.302 501.326Z" fill="#363636"/>
<path d="M175.985 510.307C175.844 510.237 175.681 510.225 175.531 510.272C175.38 510.319 175.254 510.422 175.178 510.56C175.102 510.698 175.082 510.86 175.123 511.012C175.163 511.165 175.261 511.295 175.395 511.377L277.218 567.985C277.39 568.067 277.588 568.081 277.77 568.023C277.952 567.965 278.105 567.839 278.198 567.672C278.291 567.505 278.317 567.309 278.27 567.123C278.224 566.938 278.108 566.777 277.947 566.674L175.985 510.32" fill="#363636"/>
<path d="M180.316 521.569C180.253 521.719 180.253 521.888 180.315 522.038C180.377 522.188 180.496 522.308 180.646 522.371C180.796 522.433 180.964 522.433 181.115 522.372C181.265 522.31 181.384 522.191 181.447 522.041C203.96 467.963 204.274 469.619 202.986 469.081C201.955 468.644 203.506 465.87 180.316 521.569Z" fill="#363636"/>
<path d="M195.917 529.83C195.879 529.904 195.858 529.984 195.852 530.067C195.847 530.149 195.859 530.232 195.886 530.309C195.914 530.387 195.957 530.459 196.012 530.52C196.068 530.58 196.136 530.629 196.211 530.663C196.286 530.697 196.368 530.715 196.45 530.717C196.533 530.719 196.615 530.704 196.691 530.673C196.768 530.642 196.837 530.596 196.895 530.537C196.954 530.479 196.999 530.409 197.03 530.332L221.822 475.8C221.905 475.619 221.912 475.412 221.843 475.225C221.773 475.039 221.632 474.887 221.451 474.804C221.27 474.721 221.063 474.714 220.876 474.784C220.69 474.853 220.538 474.994 220.455 475.176L195.917 529.83Z" fill="#363636"/>
<path d="M213.902 540.59C213.865 540.662 213.842 540.741 213.836 540.822C213.829 540.903 213.839 540.984 213.864 541.061C213.89 541.138 213.93 541.209 213.983 541.271C214.037 541.332 214.102 541.382 214.174 541.418C214.247 541.454 214.326 541.475 214.407 541.48C214.488 541.485 214.569 541.474 214.646 541.447C214.723 541.421 214.793 541.379 214.854 541.325C214.914 541.27 214.963 541.205 214.998 541.131L243.693 483.257C243.776 483.08 243.787 482.876 243.722 482.691C243.657 482.506 243.523 482.353 243.347 482.266C243.171 482.178 242.969 482.163 242.782 482.224C242.595 482.284 242.44 482.415 242.348 482.589L213.902 540.59Z" fill="#363636"/>
<path d="M233.672 552.258C233.596 552.402 233.58 552.57 233.627 552.726C233.675 552.881 233.782 553.012 233.926 553.088C234.069 553.165 234.237 553.181 234.393 553.133C234.548 553.086 234.679 552.978 234.755 552.835L266.66 493.117C266.724 492.947 266.725 492.759 266.661 492.589C266.598 492.418 266.474 492.277 266.314 492.19C266.154 492.104 265.968 492.078 265.791 492.119C265.614 492.159 265.457 492.262 265.35 492.409C265.35 492.409 233.69 552.258 233.685 552.258" fill="#363636"/>
<path d="M249.561 560.728C249.479 560.869 249.456 561.036 249.497 561.193C249.538 561.35 249.639 561.485 249.78 561.567C249.92 561.649 250.087 561.673 250.244 561.632C250.401 561.591 250.536 561.489 250.618 561.349L280.309 511.037C280.41 510.863 280.438 510.656 280.387 510.461C280.336 510.267 280.21 510.1 280.036 509.999C279.862 509.898 279.655 509.87 279.461 509.921C279.267 509.972 279.1 510.098 278.999 510.272C278.999 510.272 249.531 560.728 249.526 560.728" fill="#363636"/>
<defs>
<linearGradient id="paint0_linear_1_4055" x1="250.945" y1="364.317" x2="243.931" y2="364.097" gradientUnits="userSpaceOnUse">
<stop stop-color="white"/>
<stop offset="1" stop-color="white"/>
</linearGradient>
<linearGradient id="paint1_linear_1_4055" x1="213.742" y1="368.084" x2="208.019" y2="368.9" gradientUnits="userSpaceOnUse">
<stop stop-color="white"/>
<stop offset="1" stop-color="white"/>
</linearGradient>
</defs>
</svg>
