<svg width="24" height="24" viewBox="0 0 24 24" fill="none" xmlns="http://www.w3.org/2000/svg">
<g clip-path="url(#clip0_1_8149)">
<path d="M23.0469 7.28982C22.5145 6.04164 22.4225 6.01745 21.2878 6.77314C20.5984 7.23177 20.5239 7.48818 20.8482 8.26805C21.4981 9.80977 21.7333 11.4946 21.5303 13.1552C21.3273 14.8158 20.6932 16.3945 19.691 17.7345C18.6888 19.0745 17.3534 20.1292 15.8172 20.794C14.2811 21.4587 12.5977 21.7104 10.9341 21.524C5.75153 20.9328 1.77331 16.3242 2.51106 10.6696C3.21201 5.28595 8.34333 1.5743 13.6857 2.59897C14.8214 2.81765 15.6888 2.71411 16.4876 1.93908C16.658 1.77362 16.8981 1.51334 16.8652 1.34498C16.8235 1.13985 16.5573 0.908599 16.3365 0.821516C14.2528 -0.000767589 11.9775 -0.211248 9.77816 0.214838C4.30509 1.23371 0.141947 6.00584 0.00349822 11.7794C-0.170773 18.9115 6.19205 24.7557 13.3023 23.9236C19.456 23.2076 23.959 18.181 24.0006 11.9952C24.01 10.3779 23.6853 8.77602 23.0469 7.28982Z" fill="#35B14F"/>
<path d="M10.2683 12.0784C9.3834 12.0543 8.94676 11.0954 8.78411 10.6174C8.78886 10.5225 8.76157 10.4288 8.70665 10.3513C7.73848 8.8409 5.9067 8.33969 4.3373 9.16117C3.70702 9.49112 3.62763 9.84815 4.08073 10.3823C4.22596 10.5535 4.40507 10.6958 4.55514 10.8661C5.12926 11.5134 5.71694 12.1491 6.28913 12.8012L8.39393 15.5008C8.70084 15.9778 8.99614 16.4684 9.30789 16.9386C9.56639 17.3257 9.89556 17.6914 10.3777 17.6837C11.4747 17.6663 12.4883 17.3992 13.1457 16.4006C13.4313 15.9672 13.7073 15.5298 13.9987 15.0973L18.2257 9.24245C19.5715 7.76785 20.9172 6.29324 22.2843 4.838C22.8846 4.19939 22.8361 3.78526 22.0451 3.40694C20.7013 2.76543 19.3236 2.97346 18.187 4.241C16.5053 6.11618 14.931 8.08812 13.3181 10.0252C13.2009 10.15 11.4117 12.1123 10.2683 12.0784Z" fill="#35B14F"/>
</g>
<defs>
<clipPath id="clip0_1_8149">
<rect width="24" height="24" fill="white"/>
</clipPath>
</defs>
</svg>
