<svg xmlns="http://www.w3.org/2000/svg" width="104" height="213" viewBox="0 0 104 213">
    <path fill="#FFF" fill-rule="evenodd" d="M144.23 202c3.187 0 5.77 2.462 5.77 5.5s-2.583 5.5-5.77 5.5c-3.185 0-5.768-2.462-5.768-5.5s2.583-5.5 5.769-5.5zm-23.076 0c3.186 0 5.77 2.462 5.77 5.5s-2.584 5.5-5.77 5.5c-3.186 0-5.77-2.462-5.77-5.5s2.584-5.5 5.77-5.5zm-23.077 0c3.186 0 5.77 2.462 5.77 5.5s-2.584 5.5-5.77 5.5c-3.186 0-5.77-2.462-5.77-5.5s2.584-5.5 5.77-5.5zM75 202c3.186 0 5.77 2.462 5.77 5.5S78.185 213 75 213c-3.186 0-5.77-2.462-5.77-5.5S71.815 202 75 202zm-23.077 0c3.186 0 5.77 2.462 5.77 5.5s-2.584 5.5-5.77 5.5c-3.186 0-5.77-2.462-5.77-5.5s2.584-5.5 5.77-5.5zm-23.077 0c3.186 0 5.77 2.462 5.77 5.5s-2.584 5.5-5.77 5.5c-3.186 0-5.77-2.462-5.77-5.5s2.584-5.5 5.77-5.5zM5.77 202c3.186 0 5.77 2.462 5.77 5.5s-2.584 5.5-5.77 5.5C2.583 213 0 210.538 0 207.5s2.583-5.5 5.77-5.5zm138.462-29c3.186 0 5.769 2.462 5.769 5.5s-2.583 5.5-5.77 5.5c-3.185 0-5.768-2.462-5.768-5.5s2.583-5.5 5.769-5.5zm-23.077 0c3.186 0 5.77 2.462 5.77 5.5s-2.584 5.5-5.77 5.5c-3.186 0-5.77-2.462-5.77-5.5s2.584-5.5 5.77-5.5zm-23.077 0c3.186 0 5.77 2.462 5.77 5.5s-2.584 5.5-5.77 5.5c-3.186 0-5.77-2.462-5.77-5.5s2.584-5.5 5.77-5.5zM75 173c3.186 0 5.77 2.462 5.77 5.5S78.185 184 75 184c-3.186 0-5.77-2.462-5.77-5.5S71.815 173 75 173zm-23.077 0c3.186 0 5.77 2.462 5.77 5.5s-2.584 5.5-5.77 5.5c-3.186 0-5.77-2.462-5.77-5.5s2.584-5.5 5.77-5.5zm-23.077 0c3.186 0 5.77 2.462 5.77 5.5s-2.584 5.5-5.77 5.5c-3.186 0-5.77-2.462-5.77-5.5s2.584-5.5 5.77-5.5zM5.77 173c3.186 0 5.77 2.462 5.77 5.5s-2.584 5.5-5.77 5.5C2.583 184 0 181.538 0 178.5s2.583-5.5 5.77-5.5zm115.385-29c3.186 0 5.77 2.462 5.77 5.5s-2.584 5.5-5.77 5.5c-3.186 0-5.77-2.462-5.77-5.5s2.584-5.5 5.77-5.5zm-23.077 0c3.186 0 5.77 2.462 5.77 5.5s-2.584 5.5-5.77 5.5c-3.186 0-5.77-2.462-5.77-5.5s2.584-5.5 5.77-5.5zM75 144c3.186 0 5.77 2.462 5.77 5.5S78.185 155 75 155c-3.186 0-5.77-2.462-5.77-5.5S71.815 144 75 144zm-23.077 0c3.186 0 5.77 2.462 5.77 5.5s-2.584 5.5-5.77 5.5c-3.186 0-5.77-2.462-5.77-5.5s2.584-5.5 5.77-5.5zm-23.077 0c3.186 0 5.77 2.462 5.77 5.5s-2.584 5.5-5.77 5.5c-3.186 0-5.77-2.462-5.77-5.5s2.584-5.5 5.77-5.5zM5.77 144c3.186 0 5.77 2.462 5.77 5.5s-2.584 5.5-5.77 5.5C2.583 155 0 152.538 0 149.5s2.583-5.5 5.77-5.5zm138.462 0c3.186 0 5.769 2.462 5.769 5.5s-2.583 5.5-5.77 5.5c-3.185 0-5.768-2.462-5.768-5.5s2.583-5.5 5.769-5.5zm-23.077-29c3.186 0 5.77 2.462 5.77 5.5s-2.584 5.5-5.77 5.5c-3.186 0-5.77-2.462-5.77-5.5s2.584-5.5 5.77-5.5zm-23.077 0c3.186 0 5.77 2.462 5.77 5.5s-2.584 5.5-5.77 5.5c-3.186 0-5.77-2.462-5.77-5.5s2.584-5.5 5.77-5.5zM75 115c3.186 0 5.77 2.462 5.77 5.5S78.185 126 75 126c-3.186 0-5.77-2.462-5.77-5.5S71.815 115 75 115zm-23.077 0c3.186 0 5.77 2.462 5.77 5.5s-2.584 5.5-5.77 5.5c-3.186 0-5.77-2.462-5.77-5.5s2.584-5.5 5.77-5.5zm-23.077 0c3.186 0 5.77 2.462 5.77 5.5s-2.584 5.5-5.77 5.5c-3.186 0-5.77-2.462-5.77-5.5s2.584-5.5 5.77-5.5zM5.77 115c3.186 0 5.77 2.462 5.77 5.5s-2.584 5.5-5.77 5.5C2.583 126 0 123.538 0 120.5s2.583-5.5 5.77-5.5zm138.462 0c3.186 0 5.769 2.462 5.769 5.5s-2.583 5.5-5.77 5.5c-3.185 0-5.768-2.462-5.768-5.5s2.583-5.5 5.769-5.5zm0-28c3.186 0 5.769 2.462 5.769 5.5s-2.583 5.5-5.77 5.5c-3.185 0-5.768-2.462-5.768-5.5s2.583-5.5 5.769-5.5zm-23.077 0c3.186 0 5.77 2.462 5.77 5.5s-2.584 5.5-5.77 5.5c-3.186 0-5.77-2.462-5.77-5.5s2.584-5.5 5.77-5.5zm-23.077 0c3.186 0 5.77 2.462 5.77 5.5s-2.584 5.5-5.77 5.5c-3.186 0-5.77-2.462-5.77-5.5s2.584-5.5 5.77-5.5zM75 87c3.186 0 5.77 2.462 5.77 5.5S78.185 98 75 98c-3.186 0-5.77-2.462-5.77-5.5S71.815 87 75 87zm-23.077 0c3.186 0 5.77 2.462 5.77 5.5s-2.584 5.5-5.77 5.5c-3.186 0-5.77-2.462-5.77-5.5s2.584-5.5 5.77-5.5zm-23.077 0c3.186 0 5.77 2.462 5.77 5.5s-2.584 5.5-5.77 5.5c-3.186 0-5.77-2.462-5.77-5.5s2.584-5.5 5.77-5.5zM5.77 87c3.186 0 5.77 2.462 5.77 5.5S8.954 98 5.768 98C2.583 98 0 95.538 0 92.5S2.583 87 5.77 87zM75 58c3.186 0 5.77 2.462 5.77 5.5S78.185 69 75 69c-3.186 0-5.77-2.462-5.77-5.5S71.815 58 75 58zm-46.154 0c3.186 0 5.77 2.462 5.77 5.5s-2.584 5.5-5.77 5.5c-3.186 0-5.77-2.462-5.77-5.5s2.584-5.5 5.77-5.5zm23.077 0c3.186 0 5.77 2.462 5.77 5.5s-2.584 5.5-5.77 5.5c-3.186 0-5.77-2.462-5.77-5.5s2.584-5.5 5.77-5.5zm69.23 0c3.187 0 5.77 2.462 5.77 5.5s-2.583 5.5-5.77 5.5c-3.185 0-5.768-2.462-5.768-5.5s2.583-5.5 5.769-5.5zm23.078 0c3.186 0 5.769 2.462 5.769 5.5s-2.583 5.5-5.77 5.5c-3.185 0-5.768-2.462-5.768-5.5s2.583-5.5 5.769-5.5zM5.769 58c3.186 0 5.77 2.462 5.77 5.5S8.954 69 5.768 69C2.583 69 0 66.538 0 63.5S2.583 58 5.77 58zm92.308 0c3.186 0 5.77 2.462 5.77 5.5s-2.584 5.5-5.77 5.5c-3.186 0-5.77-2.462-5.77-5.5s2.584-5.5 5.77-5.5zm46.154-29c3.186 0 5.769 2.462 5.769 5.5s-2.583 5.5-5.77 5.5c-3.185 0-5.768-2.462-5.768-5.5s2.583-5.5 5.769-5.5zm-46.154 0c3.186 0 5.77 2.462 5.77 5.5s-2.584 5.5-5.77 5.5c-3.186 0-5.77-2.462-5.77-5.5s2.584-5.5 5.77-5.5zm-46.154 0c3.186 0 5.77 2.462 5.77 5.5s-2.584 5.5-5.77 5.5c-3.186 0-5.77-2.462-5.77-5.5s2.584-5.5 5.77-5.5zm-23.077 0c3.186 0 5.77 2.462 5.77 5.5s-2.584 5.5-5.77 5.5c-3.186 0-5.77-2.462-5.77-5.5s2.584-5.5 5.77-5.5zM5.77 29c3.186 0 5.77 2.462 5.77 5.5S8.954 40 5.768 40C2.583 40 0 37.538 0 34.5S2.583 29 5.77 29zm115.385 0c3.186 0 5.77 2.462 5.77 5.5s-2.584 5.5-5.77 5.5c-3.186 0-5.77-2.462-5.77-5.5s2.584-5.5 5.77-5.5zM75 29c3.186 0 5.77 2.462 5.77 5.5S78.185 40 75 40c-3.186 0-5.77-2.462-5.77-5.5S71.815 29 75 29zM28.846 0c3.186 0 5.77 2.462 5.77 5.5s-2.584 5.5-5.77 5.5c-3.186 0-5.77-2.462-5.77-5.5S25.66 0 28.847 0zm23.077 0c3.186 0 5.77 2.462 5.77 5.5s-2.584 5.5-5.77 5.5c-3.186 0-5.77-2.462-5.77-5.5S48.738 0 51.924 0zM75 0c3.186 0 5.77 2.462 5.77 5.5S78.185 11 75 11c-3.186 0-5.77-2.462-5.77-5.5S71.815 0 75 0zm23.077 0c3.186 0 5.77 2.462 5.77 5.5s-2.584 5.5-5.77 5.5c-3.186 0-5.77-2.462-5.77-5.5S94.892 0 98.078 0zm23.077 0c3.186 0 5.77 2.462 5.77 5.5s-2.584 5.5-5.77 5.5c-3.186 0-5.77-2.462-5.77-5.5s2.584-5.5 5.77-5.5zm23.077 0C147.417 0 150 2.462 150 5.5s-2.583 5.5-5.77 5.5c-3.185 0-5.768-2.462-5.768-5.5S141.045 0 144.23 0zM5.769 0c3.186 0 5.77 2.462 5.77 5.5S8.954 11 5.768 11C2.583 11 0 8.538 0 5.5S2.583 0 5.77 0z" opacity=".1"/>
</svg>
