<svg xmlns="http://www.w3.org/2000/svg" width="111" height="66" viewBox="0 0 111 66">
    <g fill="none" fill-rule="evenodd">
        <g opacity=".3">
            <path fill="#00B9EE" fill-rule="nonzero" d="M24.834 63.402s1.91-4.806 9.546-11.06c7.636-6.255 1.414-10.378-1.921-9.9-1.986.283-9.402 1.74-9.928 19.974l2.303.986z"/>
            <path fill="#00B9EE" fill-rule="nonzero" d="M18.402 64.772s8.485-14.406 16.505-9.35c0 0 3.816 4.58-4.008 6.964-7.824 2.384-12.497 2.386-12.497 2.386z"/>
            <path stroke="#00B9EE" stroke-width=".55" d="M33.065 28.123S23.13 37.82 22.53 62.414"/>
            <path fill="#00B9EE" fill-rule="nonzero" d="M26.515 39.67s5.455-4.47 6.948-1.175c1.357 3-6.948 1.176-6.948 1.176zM26.699 39.182s-1.497-6.986-3.578-4.5c-1.864 2.237 3.578 4.5 3.578 4.5zM29.547 33.08s4.128-2.516 4.663-.14c.535 2.375-4.663.14-4.663.14z"/>
            <path fill="#00B9EE" fill-rule="nonzero" d="M29.547 33.08s.136-4.591-1.749-4.391c-1.885.2-1.105 2.89 1.75 4.392zM32.558 28.679s.587-6.132 3.394-5.103c2.806 1.028-.29 3.941-3.394 5.103zM24.584 46.036s1.052-5.21-1.2-5.21c-2.253 0-.584 4.158 1.2 5.21z"/>
            <path stroke="#00B9EE" stroke-width=".55" d="M23.384 62.778s4.093-15.152 13.069-19.14M21.402 64.772s10.362-7.835 17.226-8.01" opacity=".1"/>
            <path fill="#00B9EE" fill-rule="nonzero" d="M21.693 56.762s-1.089-2.742-5.44-6.307c-4.352-3.566-.809-5.924 1.096-5.657 1.134.162 5.366.992 5.667 11.398l-1.323.566z"/>
            <path fill="#00B9EE" fill-rule="nonzero" d="M23.562 56.762s-4.849-8.22-9.419-5.336c0 0-2.18 2.614 2.287 3.976 4.467 1.362 7.132 1.36 7.132 1.36z"/>
        </g>
        <path fill="#FDC33D" fill-rule="nonzero" d="M84.824 7.592s.02 4.208 3.778 5.626c.335.125.68.224 1.03.295l-.117-.974a3.669 3.669 0 0 1-1.584-.488c-.929-.526-1.98-1.617-2.295-3.883 0 0-.078-.481.522-.52h1.345l.03-.745H85.36a.721.721 0 0 0-.536.689z"/>
        <path fill="#231F20" fill-rule="nonzero" d="M89.515 12.54a3.669 3.669 0 0 1-1.584-.49c.184.411.409.803.671 1.168.335.125.68.224 1.03.295l-.117-.974zM86.804 6.905c.014.226.034.477.06.746h.639l.03-.746h-.729z" opacity=".15"/>
        <path fill="#FDC33D" fill-rule="nonzero" d="M92.606 13.521a6.54 6.54 0 0 0 1.295-.392c3.505-1.489 3.55-5.499 3.55-5.499a.723.723 0 0 0-.532-.695h-2.174l.025.746h1.347c.606.042.517.523.517.523-.297 2.057-1.198 3.141-2.06 3.711a3.727 3.727 0 0 1-1.845.637l-.123.97z"/>
        <path fill="#231F20" fill-rule="nonzero" d="M94.745 6.93l.025.745h.828c.028-.271.048-.521.065-.748l-.918.002zM92.606 13.521a6.54 6.54 0 0 0 1.295-.392 7 7 0 0 0 .673-1.212 3.727 3.727 0 0 1-1.845.637l-.123.967z" opacity=".15"/>
        <path fill="#FFD454" fill-rule="nonzero" d="M90.396 14.51l.133.114c.169.144.385.22.606.212h.136a.897.897 0 0 0 .527-.192l.158-.127c3.434-1.709 3.347-8.77 3.347-8.77 0-.458-.537-.581-.537-.581l-7.122-.02s-.539.117-.541.577c0-.004-.121 7.055 3.293 8.786z"/>
        <path fill="#FFEAA9" fill-rule="nonzero" d="M89.469 11.723c-.018-.432.074-.527.507-.517-.433-.01-.534-.109-.554-.541.02.432-.073.527-.505.517.432.01.527.109.552.541zM89.992 11.84c0-.177.03-.218.202-.214-.178 0-.22-.044-.226-.222 0 .178-.033.216-.202.212.175.004.218.05.226.224z"/>
        <path fill="#F8BD36" fill-rule="nonzero" d="M86.705 5.64v-.258a.691.691 0 0 1 .694-.69l7.626.025c.382 0 .69.311.689.693l-.001.258a.691.691 0 0 1-.693.689l-7.626-.024a.691.691 0 0 1-.689-.693z"/>
        <path fill="#FFD454" fill-rule="nonzero" d="M91.697 19.995l-1.075-.003.019-5.982 1.075.004z"/>
        <path fill="#F8BD36" fill-rule="nonzero" d="M92.887 18.353l-3.438-.011v-.42l3.44.01z"/>
        <path fill="#FFD454" fill-rule="nonzero" d="M91.707 15.76s-.137 2.175.992 2.18h-1.535v-2.176l.543-.004zM90.632 15.756s.124 2.177-1.01 2.173h1.538v-2.175l-.528.002z"/>
        <path fill="#FFEAA9" fill-rule="nonzero" d="M85.552 3.95c1.507.939 1.636 1.49.7 3 .936-1.51 1.483-1.639 2.99-.7-1.507-.939-1.636-1.488-.7-2.997-.936 1.509-1.483 1.636-2.99.696zM90.012 7.115c-.046.736-.222.891-.957.847.735.044.89.22.844.955.046-.735.222-.89.958-.848-.736-.039-.891-.218-.845-.954zM92.697 6.347s1.374 5.78-1.925 8.382c0 0 3.042-1.448 3.384-5.844 0 0 .092-1.525-.176-2.533l-1.283-.005z"/>
        <path fill="#804F31" fill-rule="nonzero" d="M93.737 21.01l-4.986-.016.008-2.653 4.986.016z"/>
        <path fill="#71452C" fill-rule="nonzero" d="M94.071 21.01l-5.658-.017v-.427l5.66.018z"/>
        <path fill="#FFEAA9" fill-rule="nonzero" d="M92.803 20.202l-3.115-.01.004-1.274 3.115.01z"/>
        <path fill="#C1EAD4" fill-rule="nonzero" d="M33.986 50.632h-9.923v14.154h9.923V50.632"/>
        <path fill="#ADE3C6" fill-rule="nonzero" d="M49.541 44.424h-9.923v20.362h9.923V44.424"/>
        <path fill="#99DBB8" fill-rule="nonzero" d="M65.097 38.279h-9.923v26.507h9.923V38.279"/>
        <path fill="#85D4AA" fill-rule="nonzero" d="M80.653 28.554h-9.924v36.232h9.924V28.554"/>
        <path fill="#33B871" fill-rule="nonzero" d="M86.285 21.034h9.923v43.752h-9.923z"/>
        <path fill="#00B9F0" fill-rule="nonzero" d="M54.978 17.35c-1.144.228-6.74 5.987-6.723 6.1.016.114-1.097-.858-1.097-.858 3.357-5.782 9.137-10.659 9.137-10.659l-1.317 5.416z"/>
        <path fill="#FF9C78" fill-rule="nonzero" d="M48.255 23.45l-.322.405c.086.248.107.514.063.773-.127.893.202 1.344-.042 1.439-.245.095-.594-1.257-.594-1.257l-1.635 2.176a.84.84 0 0 1-.466-.542c-.08-.38.36-1.024.36-1.024s-.314.63-.534.578c-.22-.053.86-2.47 1.588-2.66l.485-.748 1.097.86z"/>
        <path fill="#0F264C" fill-rule="nonzero" d="M54.978 17.35c-1.144.228-6.74 5.987-6.723 6.1.016.114-1.097-.858-1.097-.858 3.357-5.782 9.137-10.659 9.137-10.659l-1.317 5.416z" opacity=".1"/>
        <path fill="#FFB797" fill-rule="nonzero" d="M60.22 35.301l-.117 1.186h1.459l.385-1.196z"/>
        <path fill="#263A5E" fill-rule="nonzero" d="M59.976 38.248l.01-1.878h1.879s1.628.895 3.103 1.212c.202.044.72.188.72.68l-5.712-.014z"/>
        <path fill="#FFB797" fill-rule="nonzero" d="M40.295 40.562l-.699.965 1.263.736.872-.825z"/>
        <path fill="#263A5E" fill-rule="nonzero" d="M38.6 42.98l.954-1.616 1.47.864s-.079.315 1.033 1.338c.151.14 1.616.373 1.363.808l-2.317.09L38.6 42.98z"/>
        <path fill="#0157B4" fill-rule="nonzero" d="M51.345 21.4l-4.262 10.17s-2.974 1.414-7.152 9.541l1.485.63 8.635-8.303 5.666-8.47-4.372-3.568z"/>
        <path fill="#0F264C" fill-rule="nonzero" d="M51.345 21.4l-4.262 10.17s-2.974 1.337-7.152 9.458l1.485.713 8.635-8.303 5.666-8.47-4.372-3.568z" opacity=".3"/>
        <path fill="#0157B4" fill-rule="nonzero" d="M51.345 21.4s10.883.388 13.35 2.689c2.006 1.867-2.87 11.62-2.87 11.62h-1.641s.168-5.923 1.4-9.024c0 0-6.481 1.143-8.218.19-2.065-1.132-2.522-2.97-2.02-5.475z"/>
        <path fill="#00B9F0" fill-rule="nonzero" d="M51.345 21.4c.039-.311 3.495-7.638 4.592-9.004.12-.148 2.556-3.669 4.291-1.556.374.41.712.85 1.01 1.316.606 1.092.12 4.276-.733 6.01-.776 1.577-1.634 3.838-1.634 3.838l-7.526-.604z"/>
        <path fill="#00B9F0" fill-rule="nonzero" d="M60.612 14.293l-3.15 1.095s1.574 4.858 2.096 5.392c.52.533 3.991.404 9.171-2.35l-.404-1.01-6.961 1.115-.752-4.242z"/>
        <path fill="#FF9C78" fill-rule="nonzero" d="M68.246 17.473s-.024-.168.752-.958l.515-.568s.43.26-.121.946a4.412 4.412 0 0 0 1.943-.705c1.085-.67.156.618.156.618l-.546.893a.927.927 0 0 1-.606.424l-1.727.336-.366-.986z"/>
        <path fill="#263A5E" fill-rule="nonzero" d="M64.67 7.386l.429-1.01-.412-.113z"/>
        <path fill="#FFB797" fill-rule="nonzero" d="M59.747 9.616l.849-1.232s-.782-1.263.02-1.71a.701.701 0 0 1 .517.19s-.153-1.211.659-1.211 2.44.808 3.008.715c-.066.686-.17 1.368-.313 2.042-.172.657-.354 2.408-2.089 1.77l-.82 1.212-1.83-1.776z"/>
        <path fill="#263A5E" fill-rule="nonzero" d="M61.13 6.865l.011.495.324.141s.018-1.453.648-1.545c.994-.148 2.598 1.135 3.505.345 0 0 .467-.58-.299-1.212a3.859 3.859 0 0 0-1.458-.826c-.463-.156-1.582-.382-1.92-.091 0 0-.606-.877-1.553.056a3.747 3.747 0 0 0-.586 3.695l.469.932.32-.47s-.702-1.187-.013-1.633a.562.562 0 0 1 .551.113z"/>
        <path fill="#1BABD7" fill-rule="nonzero" d="M59.432 20.608a13.535 13.535 0 0 1-2.14-6.113v7.398l1.585.13.555-1.415z"/>
        <path fill="#DDE5EF" fill-rule="nonzero" d="M.04 64.55l15.98-.486 14.194-.272 28.39-.243 28.39.23 14.195.285 8.851.485-8.85.486-14.195.286-28.392.228-28.389-.228-14.194-.286z"/>
    </g>
</svg>
